<?xml version="1.0" standalone="no"?>
<!DOCTYPE svg PUBLIC "-//W3C//DTD SVG 1.1//EN" "http://www.w3.org/Graphics/SVG/1.1/DTD/svg11.dtd" >
<svg>
<metadata>
Created by FontForge 20090914 at Tue Nov 14 13:50:14 2017
 By www-data
2002 - Iconian Fonts www.iconian.com
</metadata>
<defs>
<font id="Usuzi" horiz-adv-x="742" >
  <font-face 
    font-family="Usuzi"
    font-weight="400"
    font-stretch="normal"
    units-per-em="1000"
    panose-1="0 0 4 0 0 0 0 0 0 0"
    ascent="800"
    descent="-200"
    x-height="580"
    cap-height="580"
    bbox="-112 -200 1627 815.001"
    underline-thickness="20"
    underline-position="-190"
    unicode-range="U+0020-U+2122"
  />
<missing-glyph horiz-adv-x="500" 
d="M63 0v815h375v-815h-375zM125 63h250v690h-250v-690z" />
    <glyph glyph-name=".notdef" horiz-adv-x="500" 
d="M63 0v815h375v-815h-375zM125 63h250v690h-250v-690z" />
    <glyph glyph-name="space" unicode=" " horiz-adv-x="474" 
 />
    <glyph glyph-name="exclam" unicode="!" horiz-adv-x="252" 
d="M174 182v398h-174v-398h174zM148 115h-124v-115h124v115z" />
    <glyph glyph-name="quotedbl" unicode="&#x22;" horiz-adv-x="394" 
d="M330 579h-124v-253l124 138v115zM124 579h-124v-253l124 138v115z" />
    <glyph glyph-name="FL0023h" unicode="#" horiz-adv-x="657" 
d="M518 0v71h68v174h-68v81h68v174h-68v80h-174v-80h-93v80h-174v-80h-71v-174h71v-81h-71v-174h71v-71h174v71h93v-71h174zM344 326v-81h-93v81h93z" />
    <glyph glyph-name="FL0024h" unicode="$" horiz-adv-x="774" 
d="M424 -87l-0.000976562 87.002h130c42.667 0 75.334 11.333 98.001 34c23.333 23.333 38 47.666 44 72.999c2.66699 23.333 -1 50.333 -11 81c-8.66699 30 -27.667 50.667 -57 62l-204 77v117h272v136h-272v96h-175v-96h-43c-50.667 0 -93 -8.33301 -127 -25
c-34.667 -16.667 -54.667 -34.334 -60 -53.001c-4 -18 -9 -32.333 -15 -43c-2.66699 -8 -4 -24.333 -4 -49c-0 -51.333 24.333 -85.333 73 -102l176 -65v-111h-249v-132h249v-87h175zM248.999 444.002l0.000976562 -51l-56 21c-2.66699 0 -4.33398 4 -5.00098 12
c0.666992 12 6.66699 18 18 18h43zM424 178.002l41.001 -15c4 -1.33301 7.66699 -7 11 -17c3.33301 -9.33301 -2.33398 -14 -17.001 -14h-35v46z" />
    <glyph glyph-name="FL0025h" unicode="%" horiz-adv-x="1237" 
d="M924 613h-182l-515 -613h185zM296 392c0 -19.333 -4.00098 -33.333 -12.001 -42s-25.667 -13 -53 -13h-59c-25.333 0 -42.333 4.66699 -51 14s-13 23 -13 41v80c0 18 4.33301 31.667 13 41s25.667 14 51 14h59c28.667 0 46.334 -4.33301 53.001 -13
c8 -9.33301 12 -23.333 12 -42v-80zM198.999 258l81 -0.00195312c46.667 0 78.667 8.66699 96 26c16.667 16.667 25 41.334 25 74.001v148c0 32.667 -8.33301 57.334 -25 74.001c-17.333 17.333 -49.333 26 -96 26h-154c-46.667 0 -79 -8.16699 -97 -24.5
s-27 -41.5 -27 -75.5v-148c0 -34 9 -59.167 27 -75.5s50.333 -24.5 97 -24.5h73zM1065 148.998c0 -19.333 -4.00098 -33.333 -12.001 -42s-25.667 -13 -53 -13h-59c-25.333 0 -42.333 4.66699 -51 14s-13 23 -13 41v80c0 18 4.33301 31.667 13 41s25.667 14 51 14h59
c28.667 0 46.334 -4.33301 53.001 -13c8 -9.33301 12 -23.333 12 -42v-80zM967.998 14.998l81 -0.00195312c46.667 0 78.667 8.66699 96 26c16.667 16.667 25 41.334 25 74.001v148c0 32.667 -8.33301 57.334 -25 74.001c-17.333 17.333 -49.333 26 -96 26h-154
c-46.667 0 -79 -8.16699 -97 -24.5s-27 -41.5 -27 -75.5v-148c0 -34 9 -59.167 27 -75.5s50.333 -24.5 97 -24.5h73z" />
    <glyph glyph-name="FL0026h" unicode="&#x26;" horiz-adv-x="808" 
d="M392 0l-189.999 0.00195312c-78 0 -131.333 14.333 -160 43s-43 70 -43 124v25c1.33301 40 38 68 110 84c-73.333 27.333 -110 64.666 -110 111.999v25c0 54 14.333 95.333 43 124s82 43 160 43h202h57c78 0 131.333 -14.333 160 -43
c28 -28.667 41.667 -58.334 41 -89.001h-282h-97c-46.667 0 -76.334 -7.33301 -89.001 -22c-13.333 -15.333 -20 -27.333 -20 -36c0 -9.33301 6 -17 18 -23c12.667 -6 41.667 -9 87 -9h105h346v-134h-70l4 -32v-25c0 -54 -14.333 -95.333 -43 -124s-82 -43 -160 -43h-69z
M326.001 226.002l-45.0029 0.000976562c-45.333 0 -74.666 -3.66699 -87.999 -11c-12.667 -6.66699 -19 -15 -19 -25c0 -8.66699 6.66699 -20.667 20 -36c12.667 -14.667 42.334 -22 89.001 -22h97c46.667 0 76.334 7.33301 89.001 22c13.333 15.333 20 27.333 20 36
c0 9.33301 -6.66699 17.666 -20 24.999s-42.333 11 -87 11h-56z" />
    <glyph glyph-name="quotesingle" unicode="'" horiz-adv-x="198" 
d="M124 579h-124v-253l124 138v115z" />
    <glyph glyph-name="parenleft" unicode="(" horiz-adv-x="358" 
d="M174 358c0 14 1.66699 26.5 5 37.5s9.16602 20.5 17.499 28.5s19.333 14 33 18s31.167 6 52.5 6v132h-77c-38.667 0 -71.167 -3.5 -97.5 -10.5s-47.5 -17.333 -63.5 -31s-27.5 -31 -34.5 -52s-10.5 -45.5 -10.5 -73.5v-246c0 -28 3.5 -52.5 10.5 -73.5
s18.5 -38.333 34.5 -52s37.167 -24 63.5 -31s58.833 -10.5 97.5 -10.5h77v132c-21.333 0 -38.833 2 -52.5 6s-24.667 10 -33 18s-14.166 17.833 -17.499 29.5s-5 25.167 -5 40.5v132z" />
    <glyph glyph-name="parenright" unicode=")" horiz-adv-x="358" 
d="M107 358c0 14 -1.66699 26.5 -5 37.5s-9.16602 20.5 -17.499 28.5s-19.333 14 -33 18s-31.167 6 -52.5 6v132h77c38.667 0 71.167 -3.5 97.5 -10.5s47.5 -17.333 63.5 -31s27.5 -31 34.5 -52s10.5 -45.5 10.5 -73.5v-246c0 -28 -3.5 -52.5 -10.5 -73.5
s-18.5 -38.333 -34.5 -52s-37.167 -24 -63.5 -31s-58.833 -10.5 -97.5 -10.5h-77v132c21.333 0 38.833 2 52.5 6s24.667 10 33 18s14.166 17.833 17.499 29.5s5 25.167 5 40.5v132z" />
    <glyph glyph-name="asterisk" unicode="*" horiz-adv-x="396" 
d="M-4 516c10.667 -3.33301 24.001 -6.99902 40.001 -10.999s31.667 -7.66699 47 -11c-4.66699 -5.33301 -11.167 -13.333 -19.5 -24l-26.5 -33c-1.33301 -1.33301 -3 -3.33301 -5 -6s-3.66699 -4.66699 -5 -6l85 -62c9.33301 11.333 18.333 23.333 27 36s17 26 25 40
l25.5 -39.5c8.33301 -13 17.166 -25.167 26.499 -36.5l87 62l-12 14c-4.66699 5.33301 -8.33398 9.66602 -11.001 12.999l-35 41c11.333 2.66699 24 6 38 10l48 14l-32 104l-18.5 -7c-7 -2.66699 -13.167 -4.66699 -18.5 -6l-26.5 -9.5
c-8.33301 -3 -16.166 -6.16699 -23.499 -9.5c2 14 3.33301 28.333 4 43s1 29.667 1 45h-105c0 -11.333 0.333008 -24.833 1 -40.5s1.66699 -32.167 3 -49.5l-23 10l-26 11c-5.33301 1.33301 -11.333 3.33301 -18 6l-18 7z" />
    <glyph glyph-name="FL002Bh" unicode="+" horiz-adv-x="482" 
d="M138 493v-135h-138v-132h138v-142h132v142h139v132h-139v135h-132z" />
    <glyph glyph-name="comma" unicode="," horiz-adv-x="198" 
d="M124 115h-124v-253l124 138v115z" />
    <glyph glyph-name="hyphen" unicode="-" horiz-adv-x="482" 
d="M0 226h409v132h-409v-132z" />
    <glyph glyph-name="period" unicode="." horiz-adv-x="198" 
d="M124 115h-124v-115h124v115z" />
    <glyph glyph-name="slash" unicode="/" horiz-adv-x="762" 
d="M185 0l512 613h-182l-515 -613h185z" />
    <glyph glyph-name="zero" unicode="0" 
d="M664 167v246c0 54 -14.333 95.333 -43 124s-82 43 -160 43h-256c-38.667 0 -71.167 -3.5 -97.5 -10.5s-47.5 -17.333 -63.5 -31s-27.5 -31 -34.5 -52s-10.5 -45.5 -10.5 -73.5v-246c0 -28 3.5 -52.5 10.5 -73.5s18.5 -38.333 34.5 -52s37.167 -24 63.5 -31
s58.833 -10.5 97.5 -10.5h256c78 -0 131.333 14.333 160 43s43 70 43 124zM489 223c-1.33301 -31.333 -8.33398 -54.334 -21.001 -69.001s-42 -22 -88 -22h-98c-42 0 -70.333 7.83301 -85 23.5s-22 38.5 -22 68.5v132c0 30 7.33301 52.833 22 68.5s43 23.5 85 23.5h98
c46.667 0 76.334 -7.33301 89.001 -22c13.333 -15.333 20 -38.666 20 -69.999v-133zM245.999 228.999l170 1v116h-170v-117z" />
    <glyph glyph-name="one" unicode="1" 
d="M240 132v316h-240v132h414v-448h250v-132h-664v132h240z" />
    <glyph glyph-name="two" unicode="2" horiz-adv-x="772" 
d="M696 473c0.666992 -2.66699 1 -5.33203 1 -7.99902v-9c0 -20.667 -4 -42.334 -12 -65.001c-9.33301 -30 -28.333 -50.333 -57 -61l-435 -164l-1 -30h504v-136h-696v170c-0 51.333 24.333 85.333 73 102l392 145c4 1.33301 7.66699 7 11 17c0.666992 1.33301 1 3 1 5
c0 6 -6 9 -18 9h-459v132h554c42 0 74.667 -11.667 98 -35s38 -47.333 44 -72z" />
    <glyph glyph-name="three" unicode="3" 
d="M439 226h-440v132h490c0 14 -1.66699 26.5 -5 37.5s-9.16602 20.5 -17.499 28.5s-19.333 14 -33 18s-31.167 6 -52.5 6h-382v132h459c38.667 0 71.167 -3.5 97.5 -10.5s47.5 -17.333 63.5 -31s27.5 -31 34.5 -52s10.5 -45.5 10.5 -73.5v-246
c0 -28 -3.5 -52.5 -10.5 -73.5s-18.5 -38.333 -34.5 -52s-37.167 -24 -63.5 -31s-58.833 -10.5 -97.5 -10.5h-459v132h382c21.333 0 38.833 2 52.5 6s24.667 10 33 18s14.166 17.833 17.499 29.5s5 25.167 5 40.5h-50z" />
    <glyph glyph-name="four" unicode="4" 
d="M174 226h-174v354h174v-222h314v222h176v-580h-176v226h-314z" />
    <glyph glyph-name="five" unicode="5" horiz-adv-x="772" 
d="M696 107c0.666992 2.66699 0.999023 5.33398 0.999023 8.00098v9c0 19.333 -4 40.666 -12 63.999c-9.33301 30.667 -28.333 51.334 -57 62.001l-435 164l-1 30h504v136h-696v-170c0 -51.333 24.333 -85.333 73 -102l392 -145c4 -1.33301 7.66699 -7 11 -17
c0.666992 -1.33301 1 -3 1 -5c0 -6 -6 -9 -18 -9h-459v-132h554c42.667 0 75.334 11.333 98.001 34c23.333 23.333 38 47.666 44 72.999z" />
    <glyph glyph-name="six" unicode="6" 
d="M384 222c45.333 0 74.002 -3.00098 86.002 -9.00098c12.667 -6 19 -13.667 19 -23c0 -8.66699 -6.66699 -20.667 -20 -36c-12.667 -14.667 -42.334 -22 -89.001 -22h-97c-46.667 0 -76.334 7.33301 -89.001 22s-19 35.334 -19 62.001v6h209zM337.002 353.999h-162.002v6
c0 29.333 6.33301 51.333 19 66s42.334 22 89.001 22h380v132h-461c-78 0 -131.333 -14.333 -160 -43s-43 -70 -43 -124v-246c0 -54 14.333 -95.333 43 -124s82 -43 160 -43h259c78 0 131.333 14.333 160 43s43 70 43 124v25c0 47.333 -11.667 84.333 -35 111
c-23.333 26 -82.666 43 -177.999 51h-114z" />
    <glyph glyph-name="seven" unicode="7" horiz-adv-x="772" 
d="M0 0l505 413.999c2 0 3.66699 4 5 12c-1.33301 12 -7.33301 18 -18 18h-490v136h490c50 0 92 -8.33301 126 -25c36 -17.333 57 -34 63 -50c5.33301 -15.333 9.66602 -30.666 12.999 -45.999c2.66699 -8.66699 4 -25 4 -49c-7.33301 -49.333 -30.666 -88 -69.999 -116
l-380 -294h-248z" />
    <glyph glyph-name="eight" unicode="8" 
d="M279 358c-45.333 0 -74.335 3 -87.002 9c-12 6 -18 13.667 -18 23c0 8.66699 6.66699 20.667 20 36c12.667 14.667 42.334 22 89.001 22h97c46.667 0 76.334 -7.33301 89.001 -22c13.333 -15.333 20 -27.333 20 -36c0 -9.33301 -6.33301 -17 -19 -23
c-12 -6 -40.667 -9 -86 -9h-105zM391.998 0h69.002c78 -0 131.333 14.333 160 43s43 70 43 124v25c-0.666992 40 -37.334 68 -110.001 84c73.333 27.333 110 64.666 110 111.999v25c0 54 -14.333 95.333 -43 124s-82 43 -160 43h-57h-202c-78 0 -131.333 -14.333 -160 -43
s-43 -70 -43 -124v-25c0 -47.333 36.667 -84.666 110 -111.999c-72.667 -16 -109.334 -44 -110.001 -84v-25c0 -54 14.333 -95.333 43 -124s82 -43 160 -43h190zM326 226l56.0029 -0.000976562c44.667 0 73.667 -3.66699 87 -11s20 -15.666 20 -24.999
c0 -8.66699 -6.66699 -20.667 -20 -36c-12.667 -14.667 -42.334 -22 -89.001 -22h-97c-46.667 0 -76.334 7.33301 -89.001 22c-13.333 15.333 -20 27.333 -20 36c0 10 6.33301 18.333 19 25c13.333 7.33301 42.666 11 87.999 11h45z" />
    <glyph glyph-name="nine" unicode="9" 
d="M279 358c-45.333 0 -74.335 3.00098 -87.002 9.00098c-12 6 -18 13.667 -18 23c0 8.66699 6.66699 20.667 20 36c12.667 14.667 42.334 22 89.001 22h97c46.667 0 76.334 -7.33301 89.001 -22s19 -35.334 19 -62.001v-6h-209zM325.998 226.001h162v-6
c0 -29.333 -6.33301 -51.333 -19 -66s-42.334 -22 -89.001 -22h-380v-132h461c78 0 131.333 14.333 160 43s43 70 43 124v246c0 54 -14.333 95.333 -43 124s-82 43 -160 43h-259c-78 0 -131.333 -14.333 -160 -43s-43 -70 -43 -124v-25c0 -48.667 11.333 -85.667 34 -111
c22.667 -26 82.334 -43 179.001 -51h114z" />
    <glyph glyph-name="colon" unicode=":" horiz-adv-x="198" 
d="M124 363h-124v-115h124v115zM124 115h-124v-115h124v115z" />
    <glyph glyph-name="semicolon" unicode=";" horiz-adv-x="198" 
d="M124 363h-124v-115h124v115zM124 115h-124v-253l124 138v115z" />
    <glyph glyph-name="less" unicode="&#x3c;" horiz-adv-x="358" 
d="M174 358c0 14 1.66699 26.5 5 37.5s9.16602 20.5 17.499 28.5s19.333 14 33 18s31.167 6 52.5 6v132h-77c-38.667 0 -71.167 -3.5 -97.5 -10.5s-47.5 -17.333 -63.5 -31s-27.5 -31 -34.5 -52s-10.5 -45.5 -10.5 -73.5v-246c0 -28 3.5 -52.5 10.5 -73.5
s18.5 -38.333 34.5 -52s37.167 -24 63.5 -31s58.833 -10.5 97.5 -10.5h77v132c-21.333 0 -38.833 2 -52.5 6s-24.667 10 -33 18s-14.166 17.833 -17.499 29.5s-5 25.167 -5 40.5v132z" />
    <glyph glyph-name="equal" unicode="=" horiz-adv-x="486" 
d="M2 340h409v132h-409v-132zM2 126h409v132h-409v-132z" />
    <glyph glyph-name="greater" unicode="&#x3e;" horiz-adv-x="358" 
d="M107 358c0 14 -1.66699 26.5 -5 37.5s-9.16602 20.5 -17.499 28.5s-19.333 14 -33 18s-31.167 6 -52.5 6v132h77c38.667 0 71.167 -3.5 97.5 -10.5s47.5 -17.333 63.5 -31s27.5 -31 34.5 -52s10.5 -45.5 10.5 -73.5v-246c0 -28 -3.5 -52.5 -10.5 -73.5
s-18.5 -38.333 -34.5 -52s-37.167 -24 -63.5 -31s-58.833 -10.5 -97.5 -10.5h-77v132c21.333 0 38.833 2 52.5 6s24.667 10 33 18s14.166 17.833 17.499 29.5s5 25.167 5 40.5v132z" />
    <glyph glyph-name="question" unicode="?" horiz-adv-x="772" 
d="M696 473c2.66699 -24 -0.999023 -51.333 -10.999 -82c-9.33301 -30 -28.333 -50.333 -57 -61l-440 -154h-188c0 47.333 24.333 79.333 73 96l392 145c4 1.33301 7.66699 7 11 17c3.33301 9.33301 -2.33398 14 -17.001 14h-459v132h554c42 0 74.667 -11.667 98 -35
s38 -47.333 44 -72zM154.001 115h-124v-115h124v115z" />
    <glyph glyph-name="at" unicode="@" 
d="M536 202l0.00195312 167c0 40 -9 69 -27 87c-16.667 18.667 -55.334 28 -116.001 28h-128c-56.667 0 -94.334 -10 -113.001 -30c-18 -19.333 -27 -47.666 -27 -84.999v-166c0 -36.667 9.33301 -65.334 28 -86.001c18 -20 55.333 -30 112 -30h128v-87h-188
c-38.667 0 -71.167 3.5 -97.5 10.5s-47.5 17.333 -63.5 31s-27.5 31 -34.5 52s-10.5 45.5 -10.5 73.5v246c0 28 3.5 52.5 10.5 73.5s18.5 38.333 34.5 52s37.167 24 63.5 31s58.833 10.5 97.5 10.5h256c78 0 131.333 -14.333 160 -43s43 -70 43 -124v-413h-128v202z
M379.002 253l22.002 -89.001h80c-32 122 -48 185.333 -48 190c-6.66699 16.667 -18.334 33.667 -35.001 51c-15.333 18 -29.333 27 -42 27h-48c-12.667 0 -27.334 -9 -44.001 -27c-16.667 -16.667 -28 -33.667 -34 -51c-2 -5.33301 -18 -68.666 -48 -189.999h78l21 89h98z
M337.004 317.999h-32l4 15c3.33301 11.333 7.5 19.833 12.5 25.5s9.16699 8.5 12.5 8.5c4 0 8.33301 -2.83301 13 -8.5s8.66699 -14.167 12 -25.5l5 -15h-27z" />
    <glyph glyph-name="A" unicode="A" 
d="M439 226l50 -0.00195312v-226h174v416c0 27.333 -3.5 51.333 -10.5 72s-18.5 37.834 -34.5 51.501s-37 23.834 -63 30.501s-58.333 10 -97 10h-253c-38.667 0 -71.167 -3.5 -97.5 -10.5s-47.5 -17.333 -63.5 -31s-27.5 -31 -34.5 -52s-10.5 -45.5 -10.5 -73.5v-413h175
v226h265zM400 357.998h-225.998c0 14 1.66699 26.5 5 37.5s9.16602 20.5 17.499 28.5s19.333 14 33 18s31.167 6 52.5 6h99c21.333 0 38.833 -2 52.5 -6s24.667 -10 33 -18s14.166 -17.5 17.499 -28.5s5 -23.5 5 -37.5h-89z" />
    <glyph glyph-name="B" unicode="B" 
d="M174 226l208.001 -0.000976562c44.667 0 73.667 -3.66699 87 -11s20 -15.666 20 -24.999c0 -8.66699 -6.66699 -20.667 -20 -36c-12.667 -14.667 -42.334 -22 -89.001 -22h-206v94zM384.001 357.999h-210.001v90h206c46.667 0 76.334 -7.33301 89.001 -22
c13.333 -15.333 20 -27.333 20 -36c0 -9.33301 -6.33301 -17 -19 -23c-12 -6 -40.667 -9 -86 -9zM554 275.999c73.333 27.333 110.001 64.667 110.001 112v25c0 54 -14.333 95.333 -43 124s-82 43 -160 43h-461v-580h461c78 0 131.333 14.333 160 43s43 70 43 124v25
c-0.666992 40 -37.334 68 -110.001 84z" />
    <glyph glyph-name="C" unicode="C" 
d="M664 167v56.998h-175c0 -31.333 -6.66699 -54.666 -20 -69.999c-12.667 -14.667 -42.334 -22 -89.001 -22h-98c-42 0 -70.333 7.83301 -85 23.5s-22 38.5 -22 68.5v132c0 30 7.33301 52.833 22 68.5s43 23.5 85 23.5h98c46.667 0 76.334 -7.33301 89.001 -22
c13.333 -15.333 20 -38.666 20 -69.999h175v57c0 54 -14.333 95.333 -43 124s-82 43 -160 43h-256c-38.667 0 -71.167 -3.5 -97.5 -10.5s-47.5 -17.333 -63.5 -31s-27.5 -31 -34.5 -52s-10.5 -45.5 -10.5 -73.5v-246c0 -28 3.5 -52.5 10.5 -73.5s18.5 -38.333 34.5 -52
s37.167 -24 63.5 -31s58.833 -10.5 97.5 -10.5h256c78 -0 131.333 14.333 160 43s43 70 43 124z" />
    <glyph glyph-name="D" unicode="D" 
d="M174 448h207c21.333 0 38.833 -2 52.5 -6s24.5 -10 32.5 -18s13.667 -17.667 17 -29s5 -24.333 5 -39v-132c0 -14.667 -1.66699 -27.667 -5 -39s-9 -21 -17 -29s-18.833 -14 -32.5 -18s-31.167 -6 -52.5 -6h-207v316zM0 0h458c38.667 0 71.167 3.5 97.5 10.5
s47.5 17.333 63.5 31s27.5 31 34.5 52s10.5 45.5 10.5 73.5v246c0 28 -3.5 52.5 -10.5 73.5s-18.5 38.333 -34.5 52s-37.167 24 -63.5 31s-58.833 10.5 -97.5 10.5h-458v-580z" />
    <glyph glyph-name="E" unicode="E" 
d="M224 226h440v132h-490c0 14 1.66699 26.5 5 37.5s9.16602 20.5 17.499 28.5s19.333 14 33 18s31.167 6 52.5 6h382v132h-459c-38.667 0 -71.167 -3.5 -97.5 -10.5s-47.5 -17.333 -63.5 -31s-27.5 -31 -34.5 -52s-10.5 -45.5 -10.5 -73.5v-246c0 -28 3.5 -52.5 10.5 -73.5
s18.5 -38.333 34.5 -52s37.167 -24 63.5 -31s58.833 -10.5 97.5 -10.5h459v132h-382c-21.333 0 -38.833 2 -52.5 6s-24.667 10 -33 18s-14.166 17.833 -17.499 29.5s-5 25.167 -5 40.5h50z" />
    <glyph glyph-name="F" unicode="F" 
d="M224 226h440.001v132h-490c0 14 1.66699 26.5 5 37.5s9.16602 20.5 17.499 28.5s19.333 14 33 18s31.167 6 52.5 6h382v132h-459c-38.667 0 -71.167 -3.5 -97.5 -10.5s-47.5 -17.333 -63.5 -31s-27.5 -31 -34.5 -52s-10.5 -45.5 -10.5 -73.5v-413h175v226h50z" />
    <glyph glyph-name="G" unicode="G" 
d="M664 322v-322h-458c-38.667 0 -71.167 3.5 -97.5 10.5s-47.5 17.333 -63.5 31s-27.5 31 -34.5 52s-10.5 45.5 -10.5 73.5v246c0 28 3.5 52.5 10.5 73.5s18.5 38.333 34.5 52s37.167 24 63.5 31s58.833 10.5 97.5 10.5h458v-132h-381c-21.333 0 -38.833 -2 -52.5 -6
s-24.5 -10 -32.5 -18s-13.667 -17.667 -17 -29s-5 -24.333 -5 -39v-132c0 -14.667 1.66699 -27.667 5 -39s9 -21 17 -29s18.833 -14 32.5 -18s31.167 -6 52.5 -6h207v190h174z" />
    <glyph glyph-name="H" unicode="H" 
d="M174 226v-226h-174v580h174v-222h314v222h176v-580h-176v226h-314z" />
    <glyph glyph-name="I" unicode="I" horiz-adv-x="252" 
d="M174 0v580h-174v-580h174z" />
    <glyph glyph-name="J" unicode="J" 
d="M-1 167c0 -54 14.334 -95.332 43.001 -123.999s82 -43 160 -43h256c38.667 0 71.167 3.5 97.5 10.5s47.5 17.333 63.5 31s27.5 31 34.5 52s10.5 45.5 10.5 73.5v413h-176v-356c0 -14.667 -1.66699 -27.667 -5 -39s-9 -21 -17 -29s-18.833 -14 -32.5 -18
s-31.167 -6 -52.5 -6h-98c-46.667 0 -76.334 7.33301 -89.001 22c-13.333 15.333 -20 38.666 -20 69.999h-175v-57z" />
    <glyph glyph-name="K" unicode="K" 
d="M332 226l156 -226h176l-180 290l180 290h-176l-157 -220h-157v220h-174v-580h174v226h158z" />
    <glyph glyph-name="L" unicode="L" 
d="M664 86v-86h-459c-38.667 0 -71.167 3.5 -97.5 10.5s-47.5 17.333 -63.5 31s-27.5 31 -34.5 52s-10.5 45.5 -10.5 73.5v413h176v-356c0 -30 7.33301 -52.833 22 -68.5s43 -23.5 85 -23.5h382v-46z" />
    <glyph glyph-name="M" unicode="M" horiz-adv-x="928" 
d="M526 580l-321 -0.000976562c-37.333 0 -70 -3.66699 -98 -11c-26.667 -7.33301 -50.334 -22.333 -71.001 -45c-22 -24 -34.333 -61 -37 -111v-413h176v356c0 30 7.33301 52.833 22 68.5s43 23.5 85 23.5h51v-448h177v448h56c46.667 0 76.334 -7.33301 89.001 -22
c13.333 -15.333 20 -38.666 20 -69.999v-356h175v413c0 54 -14.333 95.333 -43 124s-82 43 -160 43h-121z" />
    <glyph glyph-name="N" unicode="N" 
d="M174 330l314 -330h176v580h-176v-324l-314 324h-174v-580h174v330z" />
    <glyph glyph-name="O" unicode="O" 
d="M664 167v246c0 54 -14.333 95.333 -43 124s-82 43 -160 43h-256c-72 -1.33301 -124.167 -15.5 -156.5 -42.5s-48.833 -68.5 -49.5 -124.5v-246c0.666992 -60 18.167 -102.833 52.5 -128.5s85.5 -38.5 153.5 -38.5h256c78 -0 131.333 14.333 160 43s43 70 43 124zM489 223
c-1.33301 -31.333 -8.33398 -54.334 -21.001 -69.001s-42 -22 -88 -22h-98c-42 0 -70.333 7.83301 -85 23.5s-22 38.5 -22 68.5v132c0 30 7.33301 52.833 22 68.5s43 23.5 85 23.5h98c46.667 0 76.334 -7.33301 89.001 -22c13.333 -15.333 20 -38.666 20 -69.999v-133z" />
    <glyph glyph-name="P" unicode="P" 
d="M174 332h206c46.667 0 76.334 7.33301 89.001 22c13.333 15.333 20 27.333 20 36s-6.66699 20.667 -20 36c-12.667 14.667 -42.334 22 -89.001 22h-206v-116zM174 200v-200h-174v580h461c78 0 131.333 -14.333 160 -43s43 -70 43 -124v-46
c0 -54 -14.333 -95.333 -43 -124s-82 -43 -160 -43h-287z" />
    <glyph glyph-name="Q" unicode="Q" 
d="M664 167v246c0 54 -14.333 95.333 -43 124s-82 43 -160 43h-256c-37.333 0 -70 -3.66699 -98 -11c-27.333 -7.33301 -51.333 -20 -72 -38c-22 -18 -34 -57.333 -36 -118v-246c2 -48 14 -84.667 36 -110c22 -24 46.167 -39.5 72.5 -46.5s58.833 -10.5 97.5 -10.5h256
c78 -0 131.333 14.333 160 43s43 70 43 124zM488 356l0.000976562 -132c-0.666992 -32.667 -7.5 -55.834 -20.5 -69.501s-30.167 -18.5 -51.5 -14.5v136h-170v-136c-18.667 -5.33301 -35.167 -0.166016 -49.5 15.501s-21.5 38.5 -21.5 68.5v132c0 30 7.33301 52.833 22 68.5
s43 23.5 85 23.5h98c45.333 0 74.666 -7.66699 87.999 -23s20 -38.333 20 -69z" />
    <glyph glyph-name="R" unicode="R" 
d="M174 332h206c46.667 0 76.334 7.33301 89.001 22c13.333 15.333 20 27.333 20 36s-6.66699 20.667 -20 36c-12.667 14.667 -42.334 22 -89.001 22h-206v-116zM478 200l194 -200h-196l-194 200h-108v-200h-174v580h461c78 0 131.333 -14.333 160 -43s43 -70 43 -124v-46
c0 -54 -14.167 -95.333 -42.5 -124s-67.5 -43 -117.5 -43h-26z" />
    <glyph glyph-name="S" unicode="S" horiz-adv-x="774" 
d="M696 107c0.666992 2.66699 0.999023 5.33301 0.999023 8v9c0 19.333 -4 40.666 -12 63.999c-9.33301 30.667 -28.333 51.334 -57 62.001l-435 164c-2.66699 0 -4.33398 4 -5.00098 12c0.666992 12 6.66699 18 18 18h490v136h-490
c-49.333 0 -91.666 -8.33301 -126.999 -25c-35.333 -17.333 -55.333 -35 -60 -53c-4 -17.333 -9 -31.666 -15 -42.999c-2.66699 -8.66699 -4 -25 -4 -49c0 -51.333 24.333 -85.333 73 -102l392 -145c4 -1.33301 7.66699 -7 11 -17c0.666992 -1.33301 1 -3 1 -5
c0 -6 -6 -9 -18 -9h-459v-132h554c42.667 0 75.334 11.333 98.001 34c23.333 23.333 38 47.666 44 72.999z" />
    <glyph glyph-name="T" unicode="T" 
d="M240 448h-240v132h664v-132h-250v-448h-174v448z" />
    <glyph glyph-name="U" unicode="U" 
d="M664 167c0 -54 -14.334 -95.332 -43.001 -123.999s-82 -43 -160 -43h-256c-64.667 0 -115 14.667 -151 44s-54.333 70.333 -55 123v413h176v-356c0 -30 7.33301 -52.833 22 -68.5s43 -23.5 85 -23.5h98c46.667 0 76.334 7.33301 89.001 22
c13.333 15.333 20 38.666 20 69.999v356h175v-413z" />
    <glyph glyph-name="V" unicode="V" 
d="M488 580l175.998 0.00195312c-71.333 -266 -109.333 -404.667 -114 -416c-10 -32 -31.333 -67.333 -64 -106c-32 -38.667 -67 -58 -105 -58h-99c-32.667 0 -66.334 19.333 -101.001 58c-17.333 19.333 -31.666 37.666 -42.999 54.999s-19.333 33.666 -24 48.999
c-4 6.66699 -15.5 44.667 -34.5 114l-80.5 304h176l89 -356c4.66699 -15.333 9.83398 -27.833 15.501 -37.5s11.5 -17.334 17.5 -23.001s11.833 -9.83398 17.5 -12.501s11.167 -4.33398 16.5 -5.00098c5.33301 0.666992 11 2.33398 17 5.00098s12 6.83398 18 12.501
s11.833 13.334 17.5 23.001s10.834 22.167 15.501 37.5z" />
    <glyph glyph-name="W" unicode="W" horiz-adv-x="928" 
d="M526 0l-321.001 0.000976562c-39.333 0 -72 3.33301 -98 10c-25.333 6.66699 -49.333 22 -72 46c-22 24 -34 61 -36 111v413h176v-356c0 -30 7.33301 -52.833 22 -68.5s43 -23.5 85 -23.5h51v448h177v-448h56c46.667 0 76.334 7.33301 89.001 22
c13.333 15.333 20 38.666 20 69.999v356h175v-413c0 -54 -14.333 -95.333 -43 -124s-82 -43 -160 -43h-121z" />
    <glyph glyph-name="X" unicode="X" 
d="M332 226l-156 -226h-176l180 290l-180 290h176l157 -222l155 222h176l-180 -290l180 -290h-176z" />
    <glyph glyph-name="Y" unicode="Y" 
d="M240 200v-200.001h174v200h47c78 0 131.333 14.333 160 43s43 70 43 124v213h-176v-176c0 -18 -6.66699 -34.667 -20 -50c-12.667 -14.667 -42 -22 -88 -22h-97c-46.667 0 -76.334 7.33301 -89.001 22c-13.333 16.667 -19.666 33.334 -18.999 50.001v176h-176v-213
c0 -54 14.333 -95.333 43 -124s82 -43 160 -43h38z" />
    <glyph glyph-name="Z" unicode="Z" horiz-adv-x="774" 
d="M696 473c2.66699 -24 -0.999023 -51.332 -10.999 -81.999c-9.33301 -30 -28.333 -50.333 -57 -61l-435 -164c-2.66699 0 -4.33398 -4 -5.00098 -12c0.666992 -12 6.66699 -18 18 -18h490v-136h-490c-49.333 0 -91.666 8.33301 -126.999 25
c-35.333 17.333 -55.333 34.666 -60 51.999c-4 18 -9 32.667 -15 44c-2.66699 8.66699 -4 25 -4 49c0 51.333 24.333 85.333 73 102l392 145c4 1.33301 7.66699 7 11 17c3.33301 9.33301 -2.33398 14 -17.001 14h-459v132h554c42 0 74.667 -11.667 98 -35s38 -47.333 44 -72
z" />
    <glyph glyph-name="bracketleft" unicode="[" horiz-adv-x="358" 
d="M174 448h109v132h-283v-580h282v132h-108v316z" />
    <glyph glyph-name="backslash" unicode="\" horiz-adv-x="762" 
d="M512 0l-512 613h182l515 -613h-185z" />
    <glyph glyph-name="bracketright" unicode="]" horiz-adv-x="358" 
d="M109 448h-108v132h282v-580h-282v132h108v316z" />
    <glyph glyph-name="FL005Eh" unicode="^" horiz-adv-x="539" 
d="M502 240h-157l-88 106l-89 -106h-157l159 189h174z" />
    <glyph glyph-name="underscore" unicode="_" horiz-adv-x="733" 
d="M-4 -106h749v74h-749v-74z" />
    <glyph glyph-name="FL0060h" unicode="`" horiz-adv-x="315" 
d="M10 796h165l102 -146h-109z" />
    <glyph glyph-name="a" unicode="a" 
d="M340 322h69.998l-11 34c-9.33301 30.667 -20.5 52.667 -33.5 66s-24.167 20 -33.5 20s-20.666 -6.66699 -33.999 -20s-24.666 -35.333 -33.999 -66l-10 -34h86zM437.998 190h-215l-48 -190h-176c68.667 264.667 105.667 402.667 111 414c12 32.667 35 68.667 69 108
c34 38.667 68.333 58 103 58h99c38 0 73 -19.333 105 -58c32.667 -38.667 54 -74.667 64 -108c4.66699 -11.333 42.667 -149.333 114 -414h-176z" />
    <glyph glyph-name="b" unicode="b" 
d="M174 226l208.001 -0.000976562c44.667 0 73.667 -3.66699 87 -11s20 -15.666 20 -24.999c0 -8.66699 -6.66699 -20.667 -20 -36c-12.667 -14.667 -42.334 -22 -89.001 -22h-206v94zM384.001 357.999h-210.001v90h206c46.667 0 76.334 -7.33301 89.001 -22
c13.333 -15.333 20 -27.333 20 -36c0 -9.33301 -6.33301 -17 -19 -23c-12 -6 -40.667 -9 -86 -9zM554 275.999c73.333 27.333 110.001 64.667 110.001 112v25c0 54 -14.333 95.333 -43 124s-82 43 -160 43h-461v-580h461c78 0 131.333 14.333 160 43s43 70 43 124v25
c-0.666992 40 -37.334 68 -110.001 84z" />
    <glyph glyph-name="c" unicode="c" 
d="M174 358c0 14 1.66699 26.5 5 37.5s9.16602 20.5 17.499 28.5s19.333 14 33 18s31.167 6 52.5 6h382v132h-459c-38.667 0 -71.167 -3.5 -97.5 -10.5s-47.5 -17.333 -63.5 -31s-27.5 -31 -34.5 -52s-10.5 -45.5 -10.5 -73.5v-246c0 -28 3.5 -52.5 10.5 -73.5
s18.5 -38.333 34.5 -52s37.167 -24 63.5 -31s58.833 -10.5 97.5 -10.5h459v132h-382c-21.333 0 -38.833 2 -52.5 6s-24.667 10 -33 18s-14.166 17.833 -17.499 29.5s-5 25.167 -5 40.5v132z" />
    <glyph glyph-name="d" unicode="d" 
d="M174 448h207c21.333 0 38.833 -2 52.5 -6s24.5 -10 32.5 -18s13.667 -17.667 17 -29s5 -24.333 5 -39v-132c0 -14.667 -1.66699 -27.667 -5 -39s-9 -21 -17 -29s-18.833 -14 -32.5 -18s-31.167 -6 -52.5 -6h-207v316zM0 0h458c38.667 0 71.167 3.5 97.5 10.5
s47.5 17.333 63.5 31s27.5 31 34.5 52s10.5 45.5 10.5 73.5v246c0 28 -3.5 52.5 -10.5 73.5s-18.5 38.333 -34.5 52s-37.167 24 -63.5 31s-58.833 10.5 -97.5 10.5h-458v-580z" />
    <glyph glyph-name="e" unicode="e" 
d="M224 226h440v132h-490c0 14 1.66699 26.5 5 37.5s9.16602 20.5 17.499 28.5s19.333 14 33 18s31.167 6 52.5 6h382v132h-459c-38.667 0 -71.167 -3.5 -97.5 -10.5s-47.5 -17.333 -63.5 -31s-27.5 -31 -34.5 -52s-10.5 -45.5 -10.5 -73.5v-246c0 -28 3.5 -52.5 10.5 -73.5
s18.5 -38.333 34.5 -52s37.167 -24 63.5 -31s58.833 -10.5 97.5 -10.5h459v132h-382c-21.333 0 -38.833 2 -52.5 6s-24.667 10 -33 18s-14.166 17.833 -17.499 29.5s-5 25.167 -5 40.5h50z" />
    <glyph glyph-name="f" unicode="f" horiz-adv-x="740" 
d="M224 226h440.001v132h-490c0 14 1.66699 26.5 5 37.5s9.16602 20.5 17.499 28.5s19.333 14 33 18s31.167 6 52.5 6h382v132h-459c-38.667 0 -71.167 -3.5 -97.5 -10.5s-47.5 -17.333 -63.5 -31s-27.5 -31 -34.5 -52s-10.5 -45.5 -10.5 -73.5v-413h175v226h50z" />
    <glyph glyph-name="g" unicode="g" 
d="M664 322v-322h-458c-38.667 0 -71.167 3.5 -97.5 10.5s-47.5 17.333 -63.5 31s-27.5 31 -34.5 52s-10.5 45.5 -10.5 73.5v246c0 28 3.5 52.5 10.5 73.5s18.5 38.333 34.5 52s37.167 24 63.5 31s58.833 10.5 97.5 10.5h458v-132h-381c-21.333 0 -38.833 -2 -52.5 -6
s-24.5 -10 -32.5 -18s-13.667 -17.667 -17 -29s-5 -24.333 -5 -39v-132c0 -14.667 1.66699 -27.667 5 -39s9 -21 17 -29s18.833 -14 32.5 -18s31.167 -6 52.5 -6h207v190h174z" />
    <glyph glyph-name="h" unicode="h" 
d="M174 226v-226h-174v580h174v-222h314v222h176v-580h-176v226h-314z" />
    <glyph glyph-name="i" unicode="i" horiz-adv-x="252" 
d="M174 0v580h-174v-580h174z" />
    <glyph glyph-name="j" unicode="j" 
d="M-1 86v46h382c21.333 0 38.833 2 52.5 6s24.5 10 32.5 18s13.667 17.667 17 29s5 24.333 5 39v356h176v-413c0 -28 -3.5 -52.5 -10.5 -73.5s-18.5 -38.333 -34.5 -52s-37.167 -24 -63.5 -31s-58.833 -10.5 -97.5 -10.5h-459v86z" />
    <glyph glyph-name="k" unicode="k" 
d="M332 226l156 -226h176l-180 290l180 290h-176l-157 -220h-157v220h-174v-580h174v226h158z" />
    <glyph glyph-name="l" unicode="l" 
d="M664 86v-86h-459c-38.667 0 -71.167 3.5 -97.5 10.5s-47.5 17.333 -63.5 31s-27.5 31 -34.5 52s-10.5 45.5 -10.5 73.5v413h176v-356c0 -30 7.33301 -52.833 22 -68.5s43 -23.5 85 -23.5h382v-46z" />
    <glyph glyph-name="m" unicode="m" horiz-adv-x="928" 
d="M526 580l-321.001 -0.000976562c-37.333 0 -70 -3.66699 -98 -11c-26.667 -7.33301 -50.667 -21 -72 -41c-22 -20 -34 -58.333 -36 -115v-413h176v356c0 30 7.33301 52.833 22 68.5s43 23.5 85 23.5h51v-448h177v448h56c46.667 0 76.334 -7.33301 89.001 -22
c13.333 -15.333 20 -38.666 20 -69.999v-356h175v413c0 54 -14.333 95.333 -43 124s-82 43 -160 43h-121z" />
    <glyph glyph-name="n" unicode="n" 
d="M664 413c0 54 -14.334 95.332 -43.001 123.999s-82 43 -160 43h-256c-64.667 0 -115 -14.667 -151 -44s-54.333 -70.333 -55 -123v-413h176v356c0 30 7.33301 52.833 22 68.5s43 23.5 85 23.5h98c46.667 0 76.334 -7.33301 89.001 -22
c13.333 -15.333 20 -38.666 20 -69.999v-356h175v413z" />
    <glyph glyph-name="o" unicode="o" 
d="M664 167v246c0 54 -14.333 95.333 -43 124s-82 43 -160 43h-256c-72 -1.33301 -124.167 -15.5 -156.5 -42.5s-48.833 -68.5 -49.5 -124.5v-246c0.666992 -60 18.167 -102.833 52.5 -128.5s85.5 -38.5 153.5 -38.5h256c78 -0 131.333 14.333 160 43s43 70 43 124zM489 223
c-1.33301 -31.333 -8.33398 -54.334 -21.001 -69.001s-42 -22 -88 -22h-98c-42 0 -70.333 7.83301 -85 23.5s-22 38.5 -22 68.5v132c0 30 7.33301 52.833 22 68.5s43 23.5 85 23.5h98c46.667 0 76.334 -7.33301 89.001 -22c13.333 -15.333 20 -38.666 20 -69.999v-133z" />
    <glyph glyph-name="p" unicode="p" 
d="M174 332h206c46.667 0 76.334 7.33301 89.001 22c13.333 15.333 20 27.333 20 36s-6.66699 20.667 -20 36c-12.667 14.667 -42.334 22 -89.001 22h-206v-116zM174 200v-200h-174v580h461c78 0 131.333 -14.333 160 -43s43 -70 43 -124v-46
c0 -54 -14.333 -95.333 -43 -124s-82 -43 -160 -43h-287z" />
    <glyph glyph-name="q" unicode="q" 
d="M664 167l-0.00195312 245.999c0 54 -14.333 95.333 -43 124s-82 43 -160 43h-256c-56.667 0 -105 -15 -145 -45c-39.333 -30 -59.666 -70.667 -60.999 -122v-246c-0.666992 -64.667 21.333 -109 66 -133c44.667 -23.333 91.334 -34.666 140.001 -33.999h256
c78 -0 131.333 14.333 160 43s43 70 43 124zM487.998 355.999l0.000976562 -132c-0.666992 -32.667 -7.5 -55.834 -20.5 -69.501s-30.167 -18.5 -51.5 -14.5v136h-170v-136c-18.667 -5.33301 -35.167 -0.166016 -49.5 15.501s-21.5 38.5 -21.5 68.5v132
c0 30 7.33301 52.833 22 68.5s43 23.5 85 23.5h98c45.333 0 74.666 -7.66699 87.999 -23s20 -38.333 20 -69z" />
    <glyph glyph-name="r" unicode="r" 
d="M174 332h206c46.667 0 76.334 7.33301 89.001 22c13.333 15.333 20 27.333 20 36s-6.66699 20.667 -20 36c-12.667 14.667 -42.334 22 -89.001 22h-206v-116zM478 200l194 -200h-196l-194 200h-108v-200h-174v580h461c78 0 131.333 -14.333 160 -43s43 -70 43 -124v-46
c0 -54 -14.167 -95.333 -42.5 -124s-67.5 -43 -117.5 -43h-26z" />
    <glyph glyph-name="s" unicode="s" horiz-adv-x="774" 
d="M696 107c2.66699 24 -1 50.999 -11 80.999c-9.33301 30.667 -28.333 51.334 -57 62.001l-435 164c-2.66699 0 -4.33398 4 -5.00098 12c0.666992 12 6.66699 18 18 18h490v136h-490c-49.333 0 -91.666 -8.33301 -126.999 -25c-35.333 -17.333 -55.333 -35 -60 -53
c-4 -17.333 -9 -31.666 -15 -42.999c-2.66699 -8.66699 -4 -25 -4 -49c-0 -51.333 24.333 -85.333 73 -102l392 -145c4 -1.33301 7.66699 -7 11 -17c3.33301 -9.33301 -2.33398 -14 -17.001 -14h-459v-132h554c42.667 0 75.334 11.333 98.001 34
c23.333 23.333 38 47.666 44 72.999z" />
    <glyph glyph-name="t" unicode="t" 
d="M240 448h-240v132h664v-132h-250v-448h-174v448z" />
    <glyph glyph-name="u" unicode="u" 
d="M664 167c0 -54 -14.334 -95.332 -43.001 -123.999s-82 -43 -160 -43h-256c-64.667 0 -115 14.667 -151 44s-54.333 70.333 -55 123v413h176v-356c0 -30 7.33301 -52.833 22 -68.5s43 -23.5 85 -23.5h98c46.667 0 76.334 7.33301 89.001 22
c13.333 15.333 20 38.666 20 69.999v356h175v-413z" />
    <glyph glyph-name="v" unicode="v" 
d="M488 580l176 0.00195312c-71.333 -266 -109.333 -404.667 -114 -416c-10 -32 -31.333 -67.333 -64 -106c-32 -38.667 -67 -58 -105 -58h-99c-32.667 0 -66.334 19.333 -101.001 58c-17.333 19.333 -31.666 37.666 -42.999 54.999s-19.333 33.666 -24 48.999
c-4 6.66699 -15.5 44.667 -34.5 114l-80.5 304h176l89 -356c9.33301 -30.667 20.333 -52.334 33 -65.001s24.334 -19.667 35.001 -21c10.667 1.33301 22.167 8.33301 34.5 21s23.166 34.334 32.499 65.001z" />
    <glyph glyph-name="w" unicode="w" horiz-adv-x="928" 
d="M526 0l121.001 -0.000976562c78 0 131.333 14.333 160 43s43 70 43 124v413h-175v-356c0 -31.333 -6.66699 -54.666 -20 -69.999c-12.667 -14.667 -42.334 -22 -89.001 -22h-56v448h-177v-448h-51c-21.333 0 -38.833 2 -52.5 6s-24.5 10 -32.5 18s-13.667 17.667 -17 29
s-5 24.333 -5 39v356h-176v-413c0 -28 3.5 -52.5 10.5 -73.5s18.5 -38.333 34.5 -52s37.167 -24 63.5 -31s58.833 -10.5 97.5 -10.5h321z" />
    <glyph glyph-name="x" unicode="x" 
d="M332 226l-156 -226h-176l180 290l-180 290h176l157 -222l155 222h176l-180 -290l180 -290h-176z" />
    <glyph glyph-name="y" unicode="y" 
d="M240 216l-240 364h176l157 -222l155 222h176l-250 -364v-216h-174v216z" />
    <glyph glyph-name="z" unicode="z" horiz-adv-x="774" 
d="M696 473c0.666992 -2.66699 1 -5.33105 1 -7.99805v-9c0 -20.667 -4 -42.334 -12 -65.001c-9.33301 -30 -28.333 -50.333 -57 -61l-435 -164c-2.66699 0 -4.33398 -4 -5.00098 -12c0.666992 -12 6.66699 -18 18 -18h490v-136h-490c-49.333 0 -91.666 8.33301 -126.999 25
c-35.333 17.333 -55.333 34.666 -60 51.999c-4 18 -9 32.667 -15 44c-2.66699 8.66699 -4 25 -4 49c-0 51.333 24.333 85.333 73 102l392 145c4 1.33301 7.66699 7 11 17c0.666992 1.33301 1 3 1 5c0 6 -6 9 -18 9h-459v132h554c42 0 74.667 -11.667 98 -35
s38 -47.333 44 -72z" />
    <glyph glyph-name="braceleft" unicode="{" horiz-adv-x="358" 
d="M174 358c0 14 1.66699 26.5 5 37.5s9.16602 20.5 17.499 28.5s19.333 14 33 18s31.167 6 52.5 6v132h-77c-38.667 0 -71.167 -3.5 -97.5 -10.5s-47.5 -17.333 -63.5 -31s-27.5 -31 -34.5 -52s-10.5 -45.5 -10.5 -73.5v-246c0 -28 3.5 -52.5 10.5 -73.5
s18.5 -38.333 34.5 -52s37.167 -24 63.5 -31s58.833 -10.5 97.5 -10.5h77v132c-21.333 0 -38.833 2 -52.5 6s-24.667 10 -33 18s-14.166 17.833 -17.499 29.5s-5 25.167 -5 40.5v132z" />
    <glyph glyph-name="FL007Ch" unicode="|" horiz-adv-x="252" 
d="M174 -91v763h-175v-763h175z" />
    <glyph glyph-name="braceright" unicode="}" horiz-adv-x="358" 
d="M107 358c0 14 -1.66699 26.5 -5 37.5s-9.16602 20.5 -17.499 28.5s-19.333 14 -33 18s-31.167 6 -52.5 6v132h77c38.667 0 71.167 -3.5 97.5 -10.5s47.5 -17.333 63.5 -31s27.5 -31 34.5 -52s10.5 -45.5 10.5 -73.5v-246c0 -28 -3.5 -52.5 -10.5 -73.5
s-18.5 -38.333 -34.5 -52s-37.167 -24 -63.5 -31s-58.833 -10.5 -97.5 -10.5h-77v132c21.333 0 38.833 2 52.5 6s24.667 10 33 18s14.166 17.833 17.499 29.5s5 25.167 5 40.5v132z" />
    <glyph glyph-name="FL007Eh" unicode="~" horiz-adv-x="557" 
d="M522 420c-19.333 -124 -70 -186 -152 -186c-34.667 0 -103 19.333 -205 58c-35.333 0 -57 -20.333 -65 -61h-91c5.33301 19.333 9.16602 34.166 11.499 44.499s3.83301 16.166 4.5 17.499c3.33301 11.333 7 21.833 11 31.5s9 18.834 15 27.501
c30 45.333 72.333 68 127 68c7.33301 0 18.833 -2.66699 34.5 -8s35.167 -12.666 58.5 -21.999c42.667 -19.333 74.334 -29 95.001 -29c34.667 0 56.667 19.667 66 59h90z" />
    <glyph glyph-name="FL00A0h" unicode="&#xa0;" horiz-adv-x="522" 
 />
    <glyph glyph-name="FL00A1h" unicode="&#xa1;" horiz-adv-x="252" 
d="M0 398v-398h174v398h-174zM26 465h124v115h-124v-115z" />
    <glyph glyph-name="FL00A2h" unicode="&#xa2;" horiz-adv-x="542" 
d="M322 580l-0.00292969 -87.9971h3c53.333 0 90.666 -10 111.999 -30c20 -20 30 -49 30 -87v-40h-123c0 21.333 -4.66699 37.666 -14 48.999c-1.33301 1.33301 -2.66602 2.5 -3.99902 3.5s-2.66602 2.16699 -3.99902 3.5v-204
c4.66699 3.33301 7.33398 5.66602 8.00098 6.99902c9.33301 11.333 14 27.666 14 48.999h123v-40c0 -38 -10 -67 -30 -87c-21.333 -20 -58.666 -30 -111.999 -30h-3v-86h-174v86h-3c-54 0 -91.5 9.5 -112.5 28.5s-31.5 48.5 -31.5 88.5v172c0 40 10.5 69.5 31.5 88.5
s58.5 28.5 112.5 28.5h3v88h174zM119.997 243.003c0 -12.667 2 -23.501 6 -32.501s11.333 -16.167 22 -21.5v200c-10.667 -5.33301 -18 -12.666 -22 -21.999s-6 -20 -6 -32v-92z" />
    <glyph glyph-name="sterling" unicode="&#xa3;" horiz-adv-x="622" 
d="M211 424c0 -21.333 5.33203 -46.665 15.999 -75.998h143v-99h-114v-5c0 -16 -2.83301 -32.167 -8.5 -48.5s-14.834 -32.5 -27.501 -48.5c24 -1.33301 49.333 -4.33301 76 -9c24 -4.66699 44 -8.16699 60 -10.5s27.667 -3.5 35 -3.5c16.667 0 50.667 9.33301 102 28
l47 -103c-20 -7.33301 -37.167 -13.166 -51.5 -17.499s-27.166 -7.83301 -38.499 -10.5s-21.5 -4.33398 -30.5 -5.00098s-17.5 -1 -25.5 -1c-17.333 0 -32.333 1 -45 3l-41 9c-0.666992 0.666992 -2 1 -4 1h-7l-7 3c-11.333 2.66699 -20 4.83398 -26 6.50098
s-11.333 2.83398 -16 3.50098c-5.33301 2 -8.33301 3 -9 3c-13.333 2 -25 3 -35 3c-17.333 0 -39 -4.16699 -65 -12.5s-53 -20.5 -81 -36.5l-52 111c30.667 12.667 56 29.167 76 49.5s30 44.5 30 72.5c0 1.33301 -0.666992 5.33301 -2 12c0 3.33301 -0.333008 5.33301 -1 6
h-88v99h54c-1.33301 5.33301 -2.33301 10.333 -3 15s-1.33398 8.66699 -2.00098 12c-1.33301 7.33301 -2.33301 13.666 -3 18.999s-1 12 -1 20c0 54.667 25.667 98 77 130c22 14 45.167 23.5 69.5 28.5s50.5 7.5 78.5 7.5c60 0 106.667 -14.667 140 -44
c16.667 -14.667 29.834 -27.834 39.501 -39.501s16.167 -21.834 19.5 -30.501l-118 -50c-1.33301 12 -9.66602 25.667 -24.999 41c-15.333 16 -34 24 -56 24c-23.333 0 -42.5 -5.83301 -57.5 -17.5s-22.5 -24.834 -22.5 -39.501z" />
    <glyph glyph-name="FL00A4h" unicode="&#xa4;" horiz-adv-x="492" 
d="M1 0v622h375v-622h-375zM63 63h250v497h-250v-497z" />
    <glyph glyph-name="FL00A5h" unicode="&#xa5;" 
d="M124 41h116v-41h174v41h119v132h-119v43l2 4h117v132h-26l157 228h-176l-155 -222l-157 222h-176l150 -228h-26v-132h113l3 -4v-43h-116v-132z" />
    <glyph glyph-name="FL00A6h" unicode="&#xa6;" horiz-adv-x="252" 
d="M174 -91v763h-175v-763h175z" />
    <glyph glyph-name="FL00A7h" unicode="&#xa7;" horiz-adv-x="774" 
d="M547 284l0.00195312 -3.99902l81 -30c28.667 -10.667 47.667 -31.334 57 -62.001c8 -23.333 12 -44.666 12 -63.999v-9c0 -4 -0.333008 -6.66699 -1 -8c-6 -25.333 -20.667 -49.666 -44 -72.999c-22.667 -22.667 -55.334 -34 -98.001 -34h-554v132h169
c-17.333 19.333 -30.5 42 -39.5 68s-13.5 54 -13.5 84v8l-43 16c-48.667 16.667 -73 50.667 -73 102c0 25.333 1.33301 41.666 4 48.999c6 11.333 11 25.666 15 42.999c4.66699 18 24.667 35.667 60 53c33.333 16.667 75.666 25 126.999 25h490v-136h-210
c19.333 -19.333 34.333 -42.333 45 -69s16 -57 16 -91zM434.002 282.001c0 30.667 -9.83301 55 -29.5 73s-43.5 27 -71.5 27c-30.667 0 -55 -9 -73 -27s-27 -42.333 -27 -73c0 -28.667 9 -52.5 27 -71.5s42.333 -28.5 73 -28.5c14 0 27.167 2.5 39.5 7.5s23 12 32 21
s16.167 19.667 21.5 32s8 25.5 8 39.5z" />
    <glyph glyph-name="FL00A8h" unicode="&#xa8;" horiz-adv-x="377" 
d="M352 680h-135v115h135v-115zM143 680h-135v115h135v-115z" />
    <glyph glyph-name="FL00A9h" unicode="&#xa9;" 
d="M664 167v246.001c0 54 -14.333 95.333 -43 124s-82 43 -160 43h-256c-72.667 -1.33301 -125 -15.333 -157 -42s-48.333 -68.334 -49 -125.001v-246c0.666992 -60 18.167 -102.833 52.5 -128.5s85.5 -38.5 153.5 -38.5h256c78 -0 131.333 14.333 160 43s43 70 43 124z
M516 208.001c-2 -38 -10.334 -65.666 -25.001 -82.999c-15.333 -17.333 -49.666 -26 -102.999 -26h-115c-24.667 0 -45 2.33301 -61 7s-28.667 11.667 -38 21s-15.833 20.833 -19.5 34.5s-5.5 29.5 -5.5 47.5v160c0 18 1.83301 33.833 5.5 47.5s10.167 25.167 19.5 34.5
s22 16.333 38 21s36.333 7 61 7h115c54.667 0 89.667 -9 105 -27c15.333 -18.667 23 -46.334 23 -83.001v-161zM465.999 244.002v22.998h-70c0 -11.333 -2.66699 -20.666 -8 -27.999c-6 -6 -18 -9 -36 -9h-39c-17.333 0 -28.833 3.16699 -34.5 9.5s-8.5 15.5 -8.5 27.5v52
c0 12 2.83301 21.167 8.5 27.5s17.167 9.5 34.5 9.5h39c18 0 30 -3 36 -9c5.33301 -7.33301 8 -16.666 8 -27.999h70v23c0 21.333 -6 38 -18 50c-11.333 11.333 -32.666 17 -63.999 17h-102c-32 0 -53.667 -5.5 -65 -16.5s-17 -27.833 -17 -50.5v-98
c0 -22.667 5.66699 -39.5 17 -50.5s33 -16.5 65 -16.5h102c31.333 0 52.666 5.66699 63.999 17c12 12 18 28.667 18 50z" />
    <glyph glyph-name="FL00AAh" unicode="&#xaa;" horiz-adv-x="463" 
d="M263 346l30.001 -114.001h105c-42 156.667 -64.667 239.334 -68 248.001c-6 20 -18.667 41.667 -38 65s-40.333 35 -63 35h-60c-20 0 -40.667 -11.667 -62 -35c-10.667 -11.333 -19.334 -22.5 -26.001 -33.5s-11.667 -21.5 -15 -31.5
c-1.33301 -3.33301 -7.5 -25.333 -18.5 -66l-48.5 -182h106l29 114h129zM192.001 425.999l-40 -1l6 21c6 18 13 31 21 39s14.667 12 20 12c6 0 12.833 -4 20.5 -12s14.167 -21 19.5 -39l7 -21z" />
    <glyph glyph-name="FL00ABh" unicode="&#xab;" horiz-adv-x="569" 
d="M245 87l-189 158v174l189 159v-157l-106 -89l106 -88v-157zM492 86l-189 158v174l189 159v-157l-106 -89l106 -88v-157z" />
    <glyph glyph-name="FL00ACh" unicode="&#xac;" horiz-adv-x="482" 
d="M409 358h-409v-132h278v-120h132z" />
    <glyph glyph-name="FL00ADh" unicode="&#xad;" horiz-adv-x="324" 
d="M0 226v132h267v-132h-267z" />
    <glyph glyph-name="FL00AEh" unicode="&#xae;" 
d="M664 167c0 -54 -14.333 -95.334 -43 -124.001s-82 -43 -160 -43h-256c-68 0 -119.167 12.833 -153.5 38.5s-51.833 68.5 -52.5 128.5v246c0.666992 56.667 17 98.334 49 125.001s84.333 40.667 157 42h256c78 0 131.333 -14.333 160 -43s43 -70 43 -124v-246z
M516 207.999l0.000976562 160.999c0 36 -7.66699 63.667 -23 83c-15.333 18 -50.333 27 -105 27h-115c-24.667 0 -45 -2.33301 -61 -7s-28.667 -11.667 -38 -21s-15.833 -20.833 -19.5 -34.5s-5.5 -29.5 -5.5 -47.5v-160c0 -18 1.83301 -33.833 5.5 -47.5
s10.167 -25.167 19.5 -34.5s22 -16.333 38 -21s36.333 -7 61 -7h115c53.333 0 87.666 8.66699 102.999 26c14.667 16.667 23 44.334 25 83.001zM360.001 306.998c18 0 30 2.99805 36 8.99805c5.33301 6.66699 8 11.334 8 14.001s-2.66699 7.33398 -8 14.001
c-6 6 -18 9 -36 9h-82v-46h82zM477.001 173.996h-78.999l-77 80h-43v-80h-70v232h184c31.333 0 52.666 -5.66699 63.999 -17c12 -12 18 -28.667 18 -50v-18c0 -21.333 -5.66699 -37.833 -17 -49.5s-27 -17.5 -47 -17.5h-11z" />
    <glyph glyph-name="FL00AFh" unicode="&#xaf;" horiz-adv-x="733" 
d="M-8 666v74h749v-74h-749z" />
    <glyph glyph-name="FL00B0h" unicode="&#xb0;" horiz-adv-x="477" 
d="M295 366c0 -19.333 -4.00098 -33.333 -12.001 -42s-25.667 -13 -53 -13h-59c-25.333 0 -42.333 4.66699 -51 14s-13 23 -13 41v80c0 18 4.33301 31.667 13 41s25.667 14 51 14h59c28.667 0 46.334 -4.33301 53.001 -13c8 -9.33301 12 -23.333 12 -42v-80zM197.999 232
l81 -0.00195312c46.667 0 78.667 8.66699 96 26c16.667 16.667 25 41.334 25 74.001v148c0 32.667 -8.33301 57.334 -25 74.001c-17.333 17.333 -49.333 26 -96 26h-154c-46.667 0 -79 -8.16699 -97 -24.5s-27 -41.5 -27 -75.5v-148c0 -34 9 -59.167 27 -75.5
s50.333 -24.5 97 -24.5h73z" />
    <glyph glyph-name="FL00B1h" unicode="&#xb1;" horiz-adv-x="482" 
d="M138 578h132v-135h139v-132h-139v-142h-132v142h-138v132h138v135zM0 0v132h409v-132h-409z" />
    <glyph glyph-name="FL00B2h" unicode="&#xb2;" horiz-adv-x="497" 
d="M420 516l-0.000976562 -5v-5c0 -14.667 -2.33301 -27.667 -7 -39c-5.33301 -18 -16.666 -30.333 -33.999 -37l-261 -98l-1 -18h303v-82h-418v102c0 30.667 14.667 51 44 61l235 87c2 0.666992 4.33301 4 7 10v3c0 4 -3.66699 6 -11 6h-275v79h332c25.333 0 45 -7 59 -21
s23 -28.333 27 -43z" />
    <glyph glyph-name="FL00B3h" unicode="&#xb3;" horiz-adv-x="475" 
d="M263 368l-264 -0.00195312v79h294c0 16.667 -4.33301 29.834 -13 39.501s-25.667 14.5 -51 14.5h-230v79h276c46.667 0 78.834 -8.16699 96.501 -24.5s26.5 -41.5 26.5 -75.5v-148c0 -34 -8.83301 -59.167 -26.5 -75.5s-49.834 -24.5 -96.501 -24.5h-276v79h230
c25.333 0 42.333 4.83301 51 14.5s13 23.834 13 42.501h-30z" />
    <glyph glyph-name="FL00B4h" unicode="&#xb4;" horiz-adv-x="315" 
d="M278 796h-165l-102 -146h109z" />
    <glyph glyph-name="FL00B5h" unicode="&#xb5;" 
d="M664 167l0.000976562 412.999h-175v-356c0 -31.333 -6.66699 -54.666 -20 -69.999c-12.667 -14.667 -42.334 -22 -89.001 -22h-98c-42 0 -70.333 7.83301 -85 23.5s-22 38.5 -22 68.5v356h-176v-413l1 -287h176v120h285h315v168z" />
    <glyph glyph-name="FL00B6h" unicode="&#xb6;" 
d="M194 200v-200h196v448h108v-448h174v580h-461c-78 0 -131.333 -14.333 -160 -43s-43 -70 -43 -124v-46c0 -54 14.167 -95.333 42.5 -124s67.5 -43 117.5 -43h26z" />
    <glyph glyph-name="FL00B7h" unicode="&#xb7;" horiz-adv-x="198" 
d="M124 363v-115h-124v115h124z" />
    <glyph glyph-name="FL00B8h" unicode="&#xb8;" horiz-adv-x="198" 
d="M-14 -200v115l145 138v-253h-145z" />
    <glyph glyph-name="FL00B9h" unicode="&#xb9;" horiz-adv-x="481" 
d="M148 311v190h-144v79h248v-269h150v-79h-398v79h144z" />
    <glyph glyph-name="FL00BAh" unicode="&#xba;" horiz-adv-x="477" 
d="M295 366c0 -19.333 -4.00098 -33.333 -12.001 -42s-25.667 -13 -53 -13h-59c-25.333 0 -42.333 4.66699 -51 14s-13 23 -13 41v80c0 18 4.33301 31.667 13 41s25.667 14 51 14h59c28.667 0 46.334 -4.33301 53.001 -13c8 -9.33301 12 -23.333 12 -42v-80zM197.999 232
l81 -0.00195312c46.667 0 78.667 8.66699 96 26c16.667 16.667 25 41.334 25 74.001v148c0 32.667 -8.33301 57.334 -25 74.001c-17.333 17.333 -49.333 26 -96 26h-154c-46.667 0 -79 -8.16699 -97 -24.5s-27 -41.5 -27 -75.5v-148c0 -34 9 -59.167 27 -75.5
s50.333 -24.5 97 -24.5h73z" />
    <glyph glyph-name="FL00BBh" unicode="&#xbb;" horiz-adv-x="569" 
d="M303 87l189 158v174l-189 159v-157l106 -89l-106 -88v-157zM56 86l189 158v174l-189 159v-157l106 -89l-106 -88v-157z" />
    <glyph glyph-name="FL00BCh" unicode="&#xbc;" horiz-adv-x="1207" 
d="M855 136h189v-136h105v348h-105v-133h-189v133h-104v-212h104zM407 -1l512 613h-182l-515 -613h185zM144 339h-144v-79h398v79h-150v269h-248v-79h144v-190z" />
    <glyph glyph-name="FL00BDh" unicode="&#xbd;" horiz-adv-x="1224" 
d="M407 -1l512 613h-182l-515 -613h185zM144 339h-144v-79h398v79h-150v269h-248v-79h144v-190zM1160 284c-4 14.667 -13 29.001 -27 43.001s-33.667 21 -59 21h-332v-79h275c7.33301 0 11 -2 11 -6v-3c-2.66699 -6 -5 -9.33301 -7 -10l-235 -87
c-29.333 -10 -44 -30.333 -44 -61v-102h418v82h-303l1 18l261 98c18 7.33301 29.333 19.666 34 36.999c4.66699 10 7 23 7 39v5v5z" />
    <glyph glyph-name="FL00BEh" unicode="&#xbe;" horiz-adv-x="1207" 
d="M855 136h189v-136h105v348h-105v-133h-189v133h-104v-212h104zM407 -1l512 613h-182l-515 -613h185zM270 387l30 0.00195312c0 -18.667 -4.33301 -32.834 -13 -42.501s-25.667 -14.5 -51 -14.5h-230v-79h276c46.667 0 78.834 8.16699 96.501 24.5s26.5 41.5 26.5 75.5
v148c0 34 -8.83301 59.167 -26.5 75.5s-49.834 24.5 -96.501 24.5h-276v-79h230c25.333 0 42.333 -4.83301 51 -14.5s13 -22.834 13 -39.501h-294v-79h264z" />
    <glyph glyph-name="FL00BFh" unicode="&#xbf;" horiz-adv-x="772" 
d="M0 107c6 -24.667 20.668 -48.6689 44.001 -72.002s56 -35 98 -35h554v132h-459c-14.667 0 -20.334 4.66699 -17.001 14c3.33301 10 7 15.667 11 17l392 145c48.667 16.667 73 48.667 73 96h-188l-440 -154c-29.333 -11.333 -48.333 -31.666 -57 -60.999
c-10 -31.333 -13.667 -58.666 -11 -81.999zM542.001 464.998v115h124v-115h-124z" />
    <glyph glyph-name="FL00C0h" unicode="&#xc0;" 
d="M439 226l-265 0.00195312v-226h-175v413c0 28 3.5 52.5 10.5 73.5s18.5 38.333 34.5 52s37.167 24 63.5 31s58.833 10.5 97.5 10.5h253c38.667 0 71 -3.33301 97 -10s47 -16.834 63 -30.501s27.5 -30.834 34.5 -51.501s10.5 -44.667 10.5 -72v-416h-174v226h-50z
M400 358.002h89c0 28 -7.5 50 -22.5 66s-43.5 24 -85.5 24h-99c-42 0 -70.5 -8 -85.5 -24s-22.5 -38 -22.5 -66h226zM161 796.002h165l102 -146h-109z" />
    <glyph glyph-name="FL00C1h" unicode="&#xc1;" 
d="M439 226l-265 0.00195312v-226h-175v413c0 28 3.5 52.5 10.5 73.5s18.5 38.333 34.5 52s37.167 24 63.5 31s58.833 10.5 97.5 10.5h253c38.667 0 71 -3.33301 97 -10s47 -16.834 63 -30.501s27.5 -30.834 34.5 -51.501s10.5 -44.667 10.5 -72v-416h-174v226h-50z
M400 358.002h89c0 28 -7.5 50 -22.5 66s-43.5 24 -85.5 24h-99c-42 0 -70.5 -8 -85.5 -24s-22.5 -38 -22.5 -66h226zM502 796.002l-158 -146h-109l102 146h165z" />
    <glyph glyph-name="FL00C2h" unicode="&#xc2;" 
d="M439 226l-265 0.00195312v-226h-175v413c0 28 3.5 52.5 10.5 73.5s18.5 38.333 34.5 52s37.167 24 63.5 31s58.833 10.5 97.5 10.5h253c38.667 0 71 -3.33301 97 -10s47 -16.834 63 -30.501s27.5 -30.834 34.5 -51.501s10.5 -44.667 10.5 -72v-416h-174v226h-50z
M400 358.002h89c0 28 -7.5 50 -22.5 66s-43.5 24 -85.5 24h-99c-42 0 -70.5 -8 -85.5 -24s-22.5 -38 -22.5 -66h226zM518 649.002h-121l-68 82l-68 -82h-121l122 146h134z" />
    <glyph glyph-name="FL00C3h" unicode="&#xc3;" 
d="M439 226l-265 0.00195312v-226h-175v413c0 28 3.5 52.5 10.5 73.5s18.5 38.333 34.5 52s37.167 24 63.5 31s58.833 10.5 97.5 10.5h253c38.667 0 71 -3.33301 97 -10s47 -16.834 63 -30.501s27.5 -30.834 34.5 -51.501s10.5 -44.667 10.5 -72v-416h-174v226h-50z
M400 358.002h89c0 28 -7.5 50 -22.5 66s-43.5 24 -85.5 24h-99c-42 0 -70.5 -8 -85.5 -24s-22.5 -38 -22.5 -66h226zM523 798.002c-14 -95.333 -53.001 -143 -117.001 -143c-26 0 -78.333 15 -157 45c-27.333 0 -44 -15.667 -50 -47h-70c6.66699 28.667 10.667 44.667 12 48
c2.66699 8.66699 5.5 16.667 8.5 24s6.83301 14.333 11.5 21c22.667 34.667 55.334 52 98.001 52c8.66699 0 32.334 -7.66699 71.001 -23c31.333 -14.667 55.666 -22 72.999 -22c26.667 0 43.667 15 51 45h69z" />
    <glyph glyph-name="FL00C4h" unicode="&#xc4;" 
d="M439 226l-265 0.00195312v-226h-175v413c0 28 3.5 52.5 10.5 73.5s18.5 38.333 34.5 52s37.167 24 63.5 31s58.833 10.5 97.5 10.5h253c38.667 0 71 -3.33301 97 -10s47 -16.834 63 -30.501s27.5 -30.834 34.5 -51.501s10.5 -44.667 10.5 -72v-416h-174v226h-50z
M400 358.002h89c0 28 -7.5 50 -22.5 66s-43.5 24 -85.5 24h-99c-42 0 -70.5 -8 -85.5 -24s-22.5 -38 -22.5 -66h226zM289 680.002h-135v115h135v-115zM506 680.002h-135v115h135v-115z" />
    <glyph glyph-name="FL00C5h" unicode="&#xc5;" 
d="M439 226l-265 0.00195312v-226h-175v413c0 28 3.5 52.5 10.5 73.5s18.5 38.333 34.5 52s37.167 24 63.5 31s58.833 10.5 97.5 10.5h253c38.667 0 71 -3.33301 97 -10s47 -16.834 63 -30.501s27.5 -30.834 34.5 -51.501s10.5 -44.667 10.5 -72v-416h-174v226h-50z
M400 358.002h89c0 28 -7.5 50 -22.5 66s-43.5 24 -85.5 24h-99c-42 0 -70.5 -8 -85.5 -24s-22.5 -38 -22.5 -66h226zM379 708.002v39.999c0 8.66699 -2 15.667 -6 21c-3.33301 4 -12 6 -26 6h-30c-12.667 0 -21.167 -2.16699 -25.5 -6.5s-6.5 -11.166 -6.5 -20.499v-40
c0 -9.33301 2.16699 -16.333 6.5 -21s12.833 -7 25.5 -7h30c13.333 0 22 2.16699 26 6.5s6 11.5 6 21.5zM331 641.001h-37c-23.333 0 -39.5 4 -48.5 12s-13.5 20.667 -13.5 38v74c0 17.333 4.5 30 13.5 38s25.167 12 48.5 12h77c23.333 0 39.333 -4.33301 48 -13
s13 -21 13 -37v-74c0 -16.667 -4.33301 -29 -13 -37c-8 -8.66699 -24 -13 -48 -13h-40z" />
    <glyph glyph-name="FL00C6h" unicode="&#xc6;" horiz-adv-x="1248" 
d="M673 226h489.999v132h-490c0 28 7.5 50 22.5 66s43.5 24 85.5 24h382v132h-459c-52.667 0 -93.667 -6.33301 -123 -19c-30 12.667 -71 19 -123 19h-253c-38.667 0 -71.167 -3.5 -97.5 -10.5s-47.5 -17.333 -63.5 -31s-27.5 -31 -34.5 -52s-10.5 -45.5 -10.5 -73.5v-413
h175v226h315v-226h174v1c6.66699 -0.666992 13.334 -1 20.001 -1h21h459v132h-382c-42 0 -70.5 8 -85.5 24s-22.5 39.333 -22.5 70zM488.999 358h-315c0 28 7.5 50 22.5 66s43.5 24 85.5 24h99c42 0 70.5 -8 85.5 -24s22.5 -38 22.5 -66z" />
    <glyph glyph-name="FL00C7h" unicode="&#xc7;" 
d="M371 -198v197.998h90c78 0 131.333 14.333 160 43s43 70 43 124v57h-175c0 -31.333 -6.66699 -54.666 -20 -69.999c-12.667 -14.667 -42.334 -22 -89.001 -22h-98c-42 0 -70.333 7.83301 -85 23.5s-22 38.5 -22 68.5v132c0 30 7.33301 52.833 22 68.5s43 23.5 85 23.5h98
c46.667 0 76.334 -7.33301 89.001 -22c13.333 -15.333 20 -38.666 20 -69.999h175v57c0 54 -14.333 95.333 -43 124s-82 43 -160 43h-256c-38.667 0 -71.167 -3.5 -97.5 -10.5s-47.5 -17.333 -63.5 -31s-27.5 -31 -34.5 -52s-10.5 -45.5 -10.5 -73.5v-246
c0 -28 3.5 -52.5 10.5 -73.5s18.5 -38.333 34.5 -52s37.167 -24 63.5 -31s58.833 -10.5 97.5 -10.5h108l-87 -83v-115h145z" />
    <glyph glyph-name="FL00C8h" unicode="&#xc8;" 
d="M224 226h-50c0 -30.667 7.5 -54 22.5 -70s43.5 -24 85.5 -24h382v-132h-459c-38.667 0 -71.167 3.5 -97.5 10.5s-47.5 17.333 -63.5 31s-27.5 31 -34.5 52s-10.5 45.5 -10.5 73.5v246c0 28 3.5 52.5 10.5 73.5s18.5 38.333 34.5 52s37.167 24 63.5 31
s58.833 10.5 97.5 10.5h459v-132h-382c-42 0 -70.5 -8 -85.5 -24s-22.5 -38 -22.5 -66h490v-132h-440zM215 796h165l102 -146h-109z" />
    <glyph glyph-name="FL00C9h" unicode="&#xc9;" 
d="M224 226h-50c0 -30.667 7.5 -54 22.5 -70s43.5 -24 85.5 -24h382v-132h-459c-38.667 0 -71.167 3.5 -97.5 10.5s-47.5 17.333 -63.5 31s-27.5 31 -34.5 52s-10.5 45.5 -10.5 73.5v246c0 28 3.5 52.5 10.5 73.5s18.5 38.333 34.5 52s37.167 24 63.5 31
s58.833 10.5 97.5 10.5h459v-132h-382c-42 0 -70.5 -8 -85.5 -24s-22.5 -38 -22.5 -66h490v-132h-440zM498 796l-158 -146h-109l102 146h165z" />
    <glyph glyph-name="FL00CAh" unicode="&#xca;" 
d="M224 226h-50c0 -30.667 7.5 -54 22.5 -70s43.5 -24 85.5 -24h382v-132h-459c-38.667 0 -71.167 3.5 -97.5 10.5s-47.5 17.333 -63.5 31s-27.5 31 -34.5 52s-10.5 45.5 -10.5 73.5v246c0 28 3.5 52.5 10.5 73.5s18.5 38.333 34.5 52s37.167 24 63.5 31
s58.833 10.5 97.5 10.5h459v-132h-382c-42 0 -70.5 -8 -85.5 -24s-22.5 -38 -22.5 -66h490v-132h-440zM548 649h-121l-68 82l-68 -82h-121l122 146h134z" />
    <glyph glyph-name="FL00CBh" unicode="&#xcb;" 
d="M224 226h-50c0 -30.667 7.5 -54 22.5 -70s43.5 -24 85.5 -24h382v-132h-459c-38.667 0 -71.167 3.5 -97.5 10.5s-47.5 17.333 -63.5 31s-27.5 31 -34.5 52s-10.5 45.5 -10.5 73.5v246c0 28 3.5 52.5 10.5 73.5s18.5 38.333 34.5 52s37.167 24 63.5 31
s58.833 10.5 97.5 10.5h459v-132h-382c-42 0 -70.5 -8 -85.5 -24s-22.5 -38 -22.5 -66h490v-132h-440zM305 680h-135v115h135v-115zM524 680h-135v115h135v-115z" />
    <glyph glyph-name="FL00CCh" unicode="&#xcc;" horiz-adv-x="252" 
d="M174 0h-174v580h174v-580zM-86 796h165l102 -146h-109z" />
    <glyph glyph-name="FL00CDh" unicode="&#xcd;" horiz-adv-x="252" 
d="M174 0h-174v580h174v-580zM269 796l-158 -146h-109l102 146h165z" />
    <glyph glyph-name="FL00CEh" unicode="&#xce;" horiz-adv-x="252" 
d="M174 0h-174v580h174v-580zM276 649h-121l-68 82l-68 -82h-121l122 146h134z" />
    <glyph glyph-name="FL00CFh" unicode="&#xcf;" horiz-adv-x="252" 
d="M174 0h-174v580h174v-580zM39 680h-135v115h135v-115zM138 796l136 -1v-115h-135z" />
    <glyph glyph-name="FL00D0h" unicode="&#xd0;" horiz-adv-x="861" 
d="M1 224h118v-224h458c38.667 0 71.167 3.5 97.5 10.5s47.5 17.333 63.5 31s27.5 31 34.5 52s10.5 45.5 10.5 73.5v246c0 28 -3.5 52.5 -10.5 73.5s-18.5 38.333 -34.5 52s-37.167 24 -63.5 31s-58.833 10.5 -97.5 10.5h-458v-224h-118v-132zM293 448h207
c42 0 70.333 -7.83301 85 -23.5s22 -38.5 22 -68.5v-132c0 -30 -7.33301 -52.833 -22 -68.5s-43 -23.5 -85 -23.5h-207v92h117v132h-117v92z" />
    <glyph glyph-name="FL00D1h" unicode="&#xd1;" 
d="M174 330v-330h-174v580h174l314 -324v324h176v-580h-176zM523 798c-14 -95.333 -53.001 -143 -117.001 -143c-26 0 -78.333 15 -157 45c-27.333 0 -44 -15.667 -50 -47h-70c6.66699 28.667 10.667 44.667 12 48c2.66699 8.66699 5.5 16.667 8.5 24
s6.83301 14.333 11.5 21c22.667 34.667 55.334 52 98.001 52c8.66699 0 32.334 -7.66699 71.001 -23c31.333 -14.667 55.666 -22 72.999 -22c26.667 0 43.667 15 51 45h69z" />
    <glyph glyph-name="FL00D2h" unicode="&#xd2;" 
d="M664 167v246c0 54 -14.333 95.333 -43 124s-82 43 -160 43h-256c-72 -1.33301 -124.167 -15.5 -156.5 -42.5s-48.833 -68.5 -49.5 -124.5v-246c0.666992 -60 18.167 -102.833 52.5 -128.5s85.5 -38.5 153.5 -38.5h256c78 -0 131.333 14.333 160 43s43 70 43 124zM489 223
c-1.33301 -31.333 -8.33398 -54.334 -21.001 -69.001s-42 -22 -88 -22h-98c-42 0 -70.333 7.83301 -85 23.5s-22 38.5 -22 68.5v132c0 30 7.33301 52.833 22 68.5s43 23.5 85 23.5h98c46.667 0 76.334 -7.33301 89.001 -22c13.333 -15.333 20 -38.666 20 -69.999v-133z
M160.999 795.999l158 -146h109l-102 146h-165z" />
    <glyph glyph-name="FL00D3h" unicode="&#xd3;" 
d="M664 167v246c0 54 -14.333 95.333 -43 124s-82 43 -160 43h-256c-72 -1.33301 -124.167 -15.5 -156.5 -42.5s-48.833 -68.5 -49.5 -124.5v-246c0.666992 -60 18.167 -102.833 52.5 -128.5s85.5 -38.5 153.5 -38.5h256c78 -0 131.333 14.333 160 43s43 70 43 124zM489 223
c-1.33301 -31.333 -8.33398 -54.334 -21.001 -69.001s-42 -22 -88 -22h-98c-42 0 -70.333 7.83301 -85 23.5s-22 38.5 -22 68.5v132c0 30 7.33301 52.833 22 68.5s43 23.5 85 23.5h98c46.667 0 76.334 -7.33301 89.001 -22c13.333 -15.333 20 -38.666 20 -69.999v-133z
M501.999 795.999h-165l-102 -146h109z" />
    <glyph glyph-name="FL00D4h" unicode="&#xd4;" 
d="M664 167v246c0 54 -14.333 95.333 -43 124s-82 43 -160 43h-128h-128c-72 -1.33301 -124.167 -15.5 -156.5 -42.5s-48.833 -68.5 -49.5 -124.5v-246c0.666992 -60 18.167 -102.833 52.5 -128.5s85.5 -38.5 153.5 -38.5h256c78 -0 131.333 14.333 160 43s43 70 43 124z
M489 223c-1.33301 -31.333 -8.33398 -54.334 -21.001 -69.001s-42 -22 -88 -22h-98c-42 0 -70.333 7.83301 -85 23.5s-22 38.5 -22 68.5v132c0 30 7.33301 52.833 22 68.5s43 23.5 85 23.5h98c46.667 0 76.334 -7.33301 89.001 -22c13.333 -15.333 20 -38.666 20 -69.999
v-133zM517.999 648.999l-122 146h-134l-122 -146h121l68 82l68 -82h121z" />
    <glyph glyph-name="FL00D5h" unicode="&#xd5;" 
d="M664 167v246c0 54 -14.333 95.333 -43 124s-82 43 -160 43h-256c-72 -1.33301 -124.167 -15.5 -156.5 -42.5s-48.833 -68.5 -49.5 -124.5v-246c0.666992 -60 18.167 -102.833 52.5 -128.5s85.5 -38.5 153.5 -38.5h256c78 -0 131.333 14.333 160 43s43 70 43 124zM489 223
c-1.33301 -31.333 -8.33398 -54.334 -21.001 -69.001s-42 -22 -88 -22h-98c-42 0 -70.333 7.83301 -85 23.5s-22 38.5 -22 68.5v132c0 30 7.33301 52.833 22 68.5s43 23.5 85 23.5h98c46.667 0 76.334 -7.33301 89.001 -22c13.333 -15.333 20 -38.666 20 -69.999v-133z
M522.999 797.999h-68.999c-7.33301 -30 -24.333 -45 -51 -45c-16.667 0 -41 7.33301 -73 22c-38 15.333 -61.667 23 -71 23c-42.667 0 -75.334 -17.333 -98.001 -52c-4.66699 -6.66699 -8.5 -13.667 -11.5 -21s-5.83301 -15.333 -8.5 -24
c-1.33301 -3.33301 -5.33301 -19.333 -12 -48h70c6 31.333 22.667 47 50 47c78.667 -30 131 -45 157 -45c64 0 103 47.667 117 143z" />
    <glyph glyph-name="FL00D6h" unicode="&#xd6;" 
d="M664 167v246c0 54 -14.333 95.333 -43 124s-82 43 -160 43h-256c-72 -1.33301 -124.167 -15.5 -156.5 -42.5s-48.833 -68.5 -49.5 -124.5v-246c0.666992 -60 18.167 -102.833 52.5 -128.5s85.5 -38.5 153.5 -38.5h256c78 -0 131.333 14.333 160 43s43 70 43 124zM489 223
c-1.33301 -31.333 -8.33398 -54.334 -21.001 -69.001s-42 -22 -88 -22h-98c-42 0 -70.333 7.83301 -85 23.5s-22 38.5 -22 68.5v132c0 30 7.33301 52.833 22 68.5s43 23.5 85 23.5h98c46.667 0 76.334 -7.33301 89.001 -22c13.333 -15.333 20 -38.666 20 -69.999v-133z
M288.999 679.999v115h-135v-115h135zM505.999 679.999v115h-135v-115h135z" />
    <glyph glyph-name="FL00D7h" unicode="&#xd7;" horiz-adv-x="594" 
d="M269 242l-125 -181h-141l144 232l-144 232h141l125 -178l124 178h141l-144 -232l144 -232h-141z" />
    <glyph glyph-name="FL00D8h" unicode="&#xd8;" 
d="M167 -19l-185.001 -0.00195312l57 68c-25.333 24.667 -38.666 64 -39.999 118v246c0.666992 56.667 17 98.334 49 125.001s84.333 40.667 157 42h256l24 -1l12 15h182l-53 -63c25.333 -27.333 38 -66.666 38 -117.999v-246c0 -54 -14.333 -95.333 -43 -124
s-82 -43 -160 -43h-256h-22zM373.999 447.998h-92c-42 0 -70.333 -7.83301 -85 -23.5s-22 -38.5 -22 -68.5v-132v-14zM488.999 222.998v133v10l-196 -234h87c46 0 75.333 7.33301 88 22s19.667 37.667 21 69z" />
    <glyph glyph-name="FL00D9h" unicode="&#xd9;" 
d="M664 167l0.000976562 412.999h-175v-356c0 -31.333 -6.66699 -54.666 -20 -69.999c-12.667 -14.667 -42.334 -22 -89.001 -22h-98c-42 0 -70.333 7.83301 -85 23.5s-22 38.5 -22 68.5v356h-176v-413c0.666992 -52.667 19 -93.667 55 -123s86.333 -44 151 -44h256
c78 -0 131.333 14.333 160 43s43 70 43 124zM161.001 795.999l158 -146h109l-102 146h-165z" />
    <glyph glyph-name="FL00DAh" unicode="&#xda;" 
d="M664 167l0.000976562 412.999h-175v-356c0 -31.333 -6.66699 -54.666 -20 -69.999c-12.667 -14.667 -42.334 -22 -89.001 -22h-98c-42 0 -70.333 7.83301 -85 23.5s-22 38.5 -22 68.5v356h-176v-413c0.666992 -52.667 19 -93.667 55 -123s86.333 -44 151 -44h256
c78 -0 131.333 14.333 160 43s43 70 43 124zM502.001 795.999h-165l-102 -146h109z" />
    <glyph glyph-name="FL00DBh" unicode="&#xdb;" 
d="M664 167l0.000976562 412.999h-175v-356c0 -31.333 -6.66699 -54.666 -20 -69.999c-12.667 -14.667 -42.334 -22 -89.001 -22h-98c-42 0 -70.333 7.83301 -85 23.5s-22 38.5 -22 68.5v356h-176v-413c0.666992 -52.667 19 -93.667 55 -123s86.333 -44 151 -44h256
c78 -0 131.333 14.333 160 43s43 70 43 124zM518.001 648.999l-122 146h-134l-122 -146h121l68 82l68 -82h121z" />
    <glyph glyph-name="FL00DCh" unicode="&#xdc;" 
d="M664 167c0 -54 -14.334 -95.332 -43.001 -123.999s-82 -43 -160 -43h-256c-64.667 0 -115 14.667 -151 44s-54.333 70.333 -55 123v413h176v-356c0 -30 7.33301 -52.833 22 -68.5s43 -23.5 85 -23.5h98c46.667 0 76.334 7.33301 89.001 22
c13.333 15.333 20 38.666 20 69.999v356h175v-413zM288.999 680.001h-135v115h135v-115zM505.999 680.001h-135v115h135v-115z" />
    <glyph glyph-name="FL00DDh" unicode="&#xdd;" 
d="M240 200v-200.001h174v200h47c78 0 131.333 14.333 160 43s43 70 43 124v213h-176v-176c0 -18 -6.66699 -34.667 -20 -50c-12.667 -14.667 -42 -22 -88 -22h-97c-46.667 0 -76.334 7.33301 -89.001 22c-13.333 16.667 -19.666 33.334 -18.999 50.001v176h-176v-213
c0 -54 14.333 -95.333 43 -124s82 -43 160 -43h38zM498 795.999h-165l-102 -146h109z" />
    <glyph glyph-name="FL00DEh" unicode="&#xde;" 
d="M174 0v96h287c78 0 131.333 14.333 160 43s43 70 43 124v46c0 54 -14.333 95.333 -43 124s-82 43 -160 43h-287v104h-174v-580h174zM174 280v64h206c46.667 0 76.334 -7.33301 89.001 -22c13.333 -15.333 20 -27.333 20 -36s-6.66699 -20.667 -20 -36
c-12.667 -14.667 -42.334 -22 -89.001 -22h-206v52z" />
    <glyph glyph-name="FL00DFh" unicode="&#xdf;" 
d="M554 276c72 -16 108.668 -43.998 110.001 -83.998v-25c0 -54 -14.333 -95.333 -43 -124s-82 -43 -160 -43h-133v132h52c46.667 0 76.334 7.33301 89.001 22c13.333 15.333 20 27.333 20 36c0 9.33301 -6.66699 17.666 -20 24.999s-42.333 11 -87 11h-54v132h56
c45.333 0 74 3 86 9c12.667 6 19 13.667 19 23c0 8.66699 -6.66699 20.667 -20 36c-12.667 14.667 -42.334 22 -89.001 22h-134c-22.667 -2.66699 -40.334 -12.334 -53.001 -29.001s-19 -37 -19 -61v-428h-174v470c1.33301 45.333 13 85.666 35 120.999s62.333 55 121 59
h305c78 0 131.333 -14.333 160 -43s43 -70 43 -124v-25c0 -47.333 -36.667 -84.666 -110 -111.999z" />
    <glyph glyph-name="FL00E0h" unicode="&#xe0;" 
d="M340 322h69.998l-11 34c-9.33301 30.667 -20.5 52.667 -33.5 66s-24.167 20 -33.5 20s-20.666 -6.66699 -33.999 -20s-24.666 -35.333 -33.999 -66l-10 -34h86zM437.998 190h-215l-48 -190h-176c68.667 264.667 105.667 402.667 111 414c12 32.667 35 68.667 69 108
c34 38.667 68.333 58 103 58h99c38 0 73 -19.333 105 -58c32.667 -38.667 54 -74.667 64 -108c4.66699 -11.333 42.667 -149.333 114 -414h-176zM160.998 796h165l102 -146h-109z" />
    <glyph glyph-name="FL00E1h" unicode="&#xe1;" 
d="M340 322h69.998l-11 34c-9.33301 30.667 -20.5 52.667 -33.5 66s-24.167 20 -33.5 20s-20.666 -6.66699 -33.999 -20s-24.666 -35.333 -33.999 -66l-10 -34h86zM437.998 190h-215l-48 -190h-176c68.667 264.667 105.667 402.667 111 414c12 32.667 35 68.667 69 108
c34 38.667 68.333 58 103 58h99c38 0 73 -19.333 105 -58c32.667 -38.667 54 -74.667 64 -108c4.66699 -11.333 42.667 -149.333 114 -414h-176zM501.998 796l-158 -146h-109l102 146h165z" />
    <glyph glyph-name="FL00E2h" unicode="&#xe2;" 
d="M340 322h69.998l-11 34c-9.33301 30.667 -20.5 52.667 -33.5 66s-24.167 20 -33.5 20s-20.666 -6.66699 -33.999 -20s-24.666 -35.333 -33.999 -66l-10 -34h86zM437.998 190h-215l-48 -190h-176c68.667 264.667 105.667 402.667 111 414c12 32.667 35 68.667 69 108
c34 38.667 68.333 58 103 58h99c38 0 73 -19.333 105 -58c32.667 -38.667 54 -74.667 64 -108c4.66699 -11.333 42.667 -149.333 114 -414h-176zM517.998 649h-121l-68 82l-68 -82h-121l122 146h134z" />
    <glyph glyph-name="FL00E3h" unicode="&#xe3;" 
d="M340 322h69.998l-11 34c-9.33301 30.667 -20.5 52.667 -33.5 66s-24.167 20 -33.5 20s-20.666 -6.66699 -33.999 -20s-24.666 -35.333 -33.999 -66l-10 -34h86zM437.998 190h-215l-48 -190h-176c68.667 264.667 105.667 402.667 111 414c12 32.667 35 68.667 69 108
c34 38.667 68.333 58 103 58h99c38 0 73 -19.333 105 -58c32.667 -38.667 54 -74.667 64 -108c4.66699 -11.333 42.667 -149.333 114 -414h-176zM522.998 798c-14 -95.333 -53.001 -143 -117.001 -143c-26 0 -78.333 15 -157 45c-27.333 0 -44 -15.667 -50 -47h-70
c6.66699 28.667 10.667 44.667 12 48c2.66699 8.66699 5.5 16.667 8.5 24s6.83301 14.333 11.5 21c22.667 34.667 55.334 52 98.001 52c8.66699 0 32.334 -7.66699 71.001 -23c31.333 -14.667 55.666 -22 72.999 -22c26.667 0 43.667 15 51 45h69z" />
    <glyph glyph-name="FL00E4h" unicode="&#xe4;" 
d="M340 322h69.998l-11 34c-9.33301 30.667 -20.5 52.667 -33.5 66s-24.167 20 -33.5 20s-20.666 -6.66699 -33.999 -20s-24.666 -35.333 -33.999 -66l-10 -34h86zM437.998 190h-215l-48 -190h-176c68.667 264.667 105.667 402.667 111 414c12 32.667 35 68.667 69 108
c34 38.667 68.333 58 103 58h99c38 0 73 -19.333 105 -58c32.667 -38.667 54 -74.667 64 -108c4.66699 -11.333 42.667 -149.333 114 -414h-176zM288.998 680h-135v115h135v-115zM505.998 680h-135v115h135v-115z" />
    <glyph glyph-name="FL00E5h" unicode="&#xe5;" 
d="M340 322h69.998l-11 34c-9.33301 30.667 -20.5 52.667 -33.5 66s-24.167 20 -33.5 20s-20.666 -6.66699 -33.999 -20s-24.666 -35.333 -33.999 -66l-10 -34h86zM437.998 190h-215l-48 -190h-176c68.667 264.667 105.667 402.667 111 414c12 32.667 35 68.667 69 108
c34 38.667 68.333 58 103 58h99c38 0 73 -19.333 105 -58c32.667 -38.667 54 -74.667 64 -108c4.66699 -11.333 42.667 -149.333 114 -414h-176zM380.998 707v39.999c0 8.66699 -2 15.667 -6 21c-3.33301 4 -12 6 -26 6h-30c-12.667 0 -21.167 -2.16699 -25.5 -6.5
s-6.5 -11.166 -6.5 -20.499v-40c0 -9.33301 2.16699 -16.333 6.5 -21s12.833 -7 25.5 -7h30c13.333 0 22 2.16699 26 6.5s6 11.5 6 21.5zM332.998 639.999h-37c-23.333 0 -39.5 4 -48.5 12s-13.5 20.667 -13.5 38v74c0 17.333 4.5 30 13.5 38s25.167 12 48.5 12h77
c23.333 0 39.333 -4.33301 48 -13s13 -21 13 -37v-74c0 -16.667 -4.33301 -29 -13 -37c-8 -8.66699 -24 -13 -48 -13h-40z" />
    <glyph glyph-name="FL00E6h" unicode="&#xe6;" horiz-adv-x="1213" 
d="M635 226h490.002v132h-490c0 28 7.5 50 22.5 66s43.5 24 85.5 24h382v132h-459c-46.667 0 -84.334 -5 -113.001 -15s-50.334 -25 -65.001 -45c-1.33301 0 -2 0.666992 -2 2c-32 38.667 -67 58 -105 58h-99c-34.667 0 -69 -19.333 -103 -58
c-34 -39.333 -57 -75.333 -69 -108c-5.33301 -11.333 -42.333 -149.333 -111 -414h176l48 190h215l50 -190h166h12h459v132h-382c-42 0 -70.5 8 -85.5 24s-22.5 39.333 -22.5 70zM410.002 322h-155.998l10 34c9.33301 30.667 20.666 52.667 33.999 66s24.666 20 33.999 20
s20.5 -6.66699 33.5 -20s24.167 -35.333 33.5 -66z" />
    <glyph glyph-name="FL00E7h" unicode="&#xe7;" 
d="M278 -200h145v200h241v132h-382c-42 0 -70.5 8 -85.5 24s-22.5 39.333 -22.5 70v132c0 28 7.5 50 22.5 66s43.5 24 85.5 24h382v132h-459c-38.667 0 -71.167 -3.5 -97.5 -10.5s-47.5 -17.333 -63.5 -31s-27.5 -31 -34.5 -52s-10.5 -45.5 -10.5 -73.5v-246
c0 -28 3.5 -52.5 10.5 -73.5s18.5 -38.333 34.5 -52s37.167 -24 63.5 -31s58.833 -10.5 97.5 -10.5h162l-89 -85v-115z" />
    <glyph glyph-name="FL00E8h" unicode="&#xe8;" 
d="M224 226h-50c0 -30.667 7.5 -54 22.5 -70s43.5 -24 85.5 -24h382v-132h-459c-38.667 0 -71.167 3.5 -97.5 10.5s-47.5 17.333 -63.5 31s-27.5 31 -34.5 52s-10.5 45.5 -10.5 73.5v246c0 28 3.5 52.5 10.5 73.5s18.5 38.333 34.5 52s37.167 24 63.5 31
s58.833 10.5 97.5 10.5h459v-132h-382c-42 0 -70.5 -8 -85.5 -24s-22.5 -38 -22.5 -66h490v-132h-440zM215 796h165l102 -146h-109z" />
    <glyph glyph-name="FL00E9h" unicode="&#xe9;" 
d="M224 226h-50c0 -30.667 7.5 -54 22.5 -70s43.5 -24 85.5 -24h382v-132h-459c-38.667 0 -71.167 3.5 -97.5 10.5s-47.5 17.333 -63.5 31s-27.5 31 -34.5 52s-10.5 45.5 -10.5 73.5v246c0 28 3.5 52.5 10.5 73.5s18.5 38.333 34.5 52s37.167 24 63.5 31
s58.833 10.5 97.5 10.5h459v-132h-382c-42 0 -70.5 -8 -85.5 -24s-22.5 -38 -22.5 -66h490v-132h-440zM498 796l-158 -146h-109l102 146h165z" />
    <glyph glyph-name="FL00EAh" unicode="&#xea;" 
d="M224 226h-50c0 -30.667 7.5 -54 22.5 -70s43.5 -24 85.5 -24h382v-132h-459c-38.667 0 -71.167 3.5 -97.5 10.5s-47.5 17.333 -63.5 31s-27.5 31 -34.5 52s-10.5 45.5 -10.5 73.5v246c0 28 3.5 52.5 10.5 73.5s18.5 38.333 34.5 52s37.167 24 63.5 31
s58.833 10.5 97.5 10.5h459v-132h-382c-42 0 -70.5 -8 -85.5 -24s-22.5 -38 -22.5 -66h490v-132h-440zM548 649h-121l-68 82l-68 -82h-121l122 146h134z" />
    <glyph glyph-name="FL00EBh" unicode="&#xeb;" 
d="M224 226h-50c0 -30.667 7.5 -54 22.5 -70s43.5 -24 85.5 -24h382v-132h-459c-38.667 0 -71.167 3.5 -97.5 10.5s-47.5 17.333 -63.5 31s-27.5 31 -34.5 52s-10.5 45.5 -10.5 73.5v246c0 28 3.5 52.5 10.5 73.5s18.5 38.333 34.5 52s37.167 24 63.5 31
s58.833 10.5 97.5 10.5h459v-132h-382c-42 0 -70.5 -8 -85.5 -24s-22.5 -38 -22.5 -66h490v-132h-440zM305 680h-135v115h135v-115zM524 680h-135v115h135v-115z" />
    <glyph glyph-name="FL00ECh" unicode="&#xec;" horiz-adv-x="252" 
d="M174 0h-174v580h174v-580zM-86 796h165l102 -146h-109z" />
    <glyph glyph-name="FL00EDh" unicode="&#xed;" horiz-adv-x="252" 
d="M174 0h-174v580h174v-580zM269 796l-158 -146h-109l102 146h165z" />
    <glyph glyph-name="FL00EEh" unicode="&#xee;" horiz-adv-x="252" 
d="M174 0h-174v580h174v-580zM276 649h-121l-68 82l-68 -82h-121l122 146h134z" />
    <glyph glyph-name="FL00EFh" unicode="&#xef;" horiz-adv-x="252" 
d="M174 0h-174v580h174v-580zM39 680h-135v115h135v-115zM138 796l136 -1v-115h-135z" />
    <glyph glyph-name="FL00F0h" unicode="&#xf0;" horiz-adv-x="834" 
d="M748 421v111h-84v48h-174v-48h-153v-111h153v-41h-287c-78 0 -131.333 -14.333 -160 -43s-43 -70 -43 -124v-46c-0 -54 14.333 -95.333 43 -124s82 -43 160 -43h461v421h84zM490 248v-116h-206c-46.667 0 -76.334 7.33301 -89.001 22c-13.333 15.333 -20 27.333 -20 36
s6.66699 20.667 20 36c12.667 14.667 42.334 22 89.001 22h206z" />
    <glyph glyph-name="FL00F1h" unicode="&#xf1;" 
d="M664 413l0.000976562 -412.999h-175v356c0 31.333 -6.66699 54.666 -20 69.999c-12.667 14.667 -42.334 22 -89.001 22h-98c-42 0 -70.333 -7.83301 -85 -23.5s-22 -38.5 -22 -68.5v-356h-176v413c0.666992 52.667 19 93.667 55 123s86.333 44 151 44h256
c78 0 131.333 -14.333 160 -43s43 -70 43 -124zM523.001 798.001c-14 -95.333 -53.001 -143 -117.001 -143c-26 0 -78.333 15 -157 45c-27.333 0 -44 -15.667 -50 -47h-70c6.66699 28.667 10.667 44.667 12 48c2.66699 8.66699 5.5 16.667 8.5 24s6.83301 14.333 11.5 21
c22.667 34.667 55.334 52 98.001 52c8.66699 0 32.334 -7.66699 71.001 -23c31.333 -14.667 55.666 -22 72.999 -22c26.667 0 43.667 15 51 45h69z" />
    <glyph glyph-name="FL00F2h" unicode="&#xf2;" 
d="M664 167v246c0 54 -14.333 95.333 -43 124s-82 43 -160 43h-256c-72 -1.33301 -124.167 -15.5 -156.5 -42.5s-48.833 -68.5 -49.5 -124.5v-246c0.666992 -60 18.167 -102.833 52.5 -128.5s85.5 -38.5 153.5 -38.5h256c78 -0 131.333 14.333 160 43s43 70 43 124zM489 223
c-1.33301 -31.333 -8.33398 -54.334 -21.001 -69.001s-42 -22 -88 -22h-98c-42 0 -70.333 7.83301 -85 23.5s-22 38.5 -22 68.5v132c0 30 7.33301 52.833 22 68.5s43 23.5 85 23.5h98c46.667 0 76.334 -7.33301 89.001 -22c13.333 -15.333 20 -38.666 20 -69.999v-133z
M160.999 795.999l158 -146h109l-102 146h-165z" />
    <glyph glyph-name="FL00F3h" unicode="&#xf3;" 
d="M664 167v246c0 54 -14.333 95.333 -43 124s-82 43 -160 43h-256c-72 -1.33301 -124.167 -15.5 -156.5 -42.5s-48.833 -68.5 -49.5 -124.5v-246c0.666992 -60 18.167 -102.833 52.5 -128.5s85.5 -38.5 153.5 -38.5h256c78 -0 131.333 14.333 160 43s43 70 43 124zM489 223
c-1.33301 -31.333 -8.33398 -54.334 -21.001 -69.001s-42 -22 -88 -22h-98c-42 0 -70.333 7.83301 -85 23.5s-22 38.5 -22 68.5v132c0 30 7.33301 52.833 22 68.5s43 23.5 85 23.5h98c46.667 0 76.334 -7.33301 89.001 -22c13.333 -15.333 20 -38.666 20 -69.999v-133z
M501.999 795.999h-165l-102 -146h109z" />
    <glyph glyph-name="FL00F4h" unicode="&#xf4;" 
d="M664 167v246c0 54 -14.333 95.333 -43 124s-82 43 -160 43h-128h-128c-72 -1.33301 -124.167 -15.5 -156.5 -42.5s-48.833 -68.5 -49.5 -124.5v-246c0.666992 -60 18.167 -102.833 52.5 -128.5s85.5 -38.5 153.5 -38.5h256c78 -0 131.333 14.333 160 43s43 70 43 124z
M489 223c-1.33301 -31.333 -8.33398 -54.334 -21.001 -69.001s-42 -22 -88 -22h-98c-42 0 -70.333 7.83301 -85 23.5s-22 38.5 -22 68.5v132c0 30 7.33301 52.833 22 68.5s43 23.5 85 23.5h98c46.667 0 76.334 -7.33301 89.001 -22c13.333 -15.333 20 -38.666 20 -69.999
v-133zM517.999 648.999l-122 146h-134l-122 -146h121l68 82l68 -82h121z" />
    <glyph glyph-name="FL00F5h" unicode="&#xf5;" 
d="M664 167v246c0 54 -14.333 95.333 -43 124s-82 43 -160 43h-256c-72 -1.33301 -124.167 -15.5 -156.5 -42.5s-48.833 -68.5 -49.5 -124.5v-246c0.666992 -60 18.167 -102.833 52.5 -128.5s85.5 -38.5 153.5 -38.5h256c78 -0 131.333 14.333 160 43s43 70 43 124zM489 223
c-1.33301 -31.333 -8.33398 -54.334 -21.001 -69.001s-42 -22 -88 -22h-98c-42 0 -70.333 7.83301 -85 23.5s-22 38.5 -22 68.5v132c0 30 7.33301 52.833 22 68.5s43 23.5 85 23.5h98c46.667 0 76.334 -7.33301 89.001 -22c13.333 -15.333 20 -38.666 20 -69.999v-133z
M522.999 797.999h-68.999c-7.33301 -30 -24.333 -45 -51 -45c-16.667 0 -41 7.33301 -73 22c-38 15.333 -61.667 23 -71 23c-42.667 0 -75.334 -17.333 -98.001 -52c-4.66699 -6.66699 -8.5 -13.667 -11.5 -21s-5.83301 -15.333 -8.5 -24
c-1.33301 -3.33301 -5.33301 -19.333 -12 -48h70c6 31.333 22.667 47 50 47c78.667 -30 131 -45 157 -45c64 0 103 47.667 117 143z" />
    <glyph glyph-name="FL00F6h" unicode="&#xf6;" 
d="M664 167v246c0 54 -14.333 95.333 -43 124s-82 43 -160 43h-256c-72 -1.33301 -124.167 -15.5 -156.5 -42.5s-48.833 -68.5 -49.5 -124.5v-246c0.666992 -60 18.167 -102.833 52.5 -128.5s85.5 -38.5 153.5 -38.5h256c78 -0 131.333 14.333 160 43s43 70 43 124zM489 223
c-1.33301 -31.333 -8.33398 -54.334 -21.001 -69.001s-42 -22 -88 -22h-98c-42 0 -70.333 7.83301 -85 23.5s-22 38.5 -22 68.5v132c0 30 7.33301 52.833 22 68.5s43 23.5 85 23.5h98c46.667 0 76.334 -7.33301 89.001 -22c13.333 -15.333 20 -38.666 20 -69.999v-133z
M288.999 679.999v115h-135v-115h135zM505.999 679.999v115h-135v-115h135z" />
    <glyph glyph-name="FL00F7h" unicode="&#xf7;" 
d="M0 226v132h665v-132h-665zM399 459h-135v115h135v-115zM399 125v-115h-135v115h135z" />
    <glyph glyph-name="FL00F8h" unicode="&#xf8;" 
d="M167 -19l16 19.001h22h256c78 0 131.333 14.333 160 43s43 70 43 124v246c0 51.333 -12.667 90.666 -38 117.999l53 63h-182l-12 -15c-4 0.666992 -8 1 -12 1h-12h-256c-72.667 -1.33301 -125 -15.333 -157 -42s-48.333 -68.334 -49 -125.001v-246
c0.666992 -53.333 14 -92.666 40 -117.999l-57 -68h185zM374 448.001l-199 -238v14v132c0 30 7.33301 52.833 22 68.5s43 23.5 85 23.5h92zM489 223.001c-1.33301 -31.333 -8.33301 -54.333 -21 -69s-42 -22 -88 -22h-87l196 234v-10v-133z" />
    <glyph glyph-name="FL00F9h" unicode="&#xf9;" 
d="M664 167l0.000976562 412.999h-175v-356c0 -31.333 -6.66699 -54.666 -20 -69.999c-12.667 -14.667 -42.334 -22 -89.001 -22h-98c-42 0 -70.333 7.83301 -85 23.5s-22 38.5 -22 68.5v356h-176v-413c0.666992 -52.667 19 -93.667 55 -123s86.333 -44 151 -44h256
c78 -0 131.333 14.333 160 43s43 70 43 124zM161.001 795.999l158 -146h109l-102 146h-165z" />
    <glyph glyph-name="FL00FAh" unicode="&#xfa;" 
d="M664 167l0.000976562 412.999h-175v-356c0 -31.333 -6.66699 -54.666 -20 -69.999c-12.667 -14.667 -42.334 -22 -89.001 -22h-98c-42 0 -70.333 7.83301 -85 23.5s-22 38.5 -22 68.5v356h-176v-413c0.666992 -52.667 19 -93.667 55 -123s86.333 -44 151 -44h256
c78 -0 131.333 14.333 160 43s43 70 43 124zM502.001 795.999h-165l-102 -146h109z" />
    <glyph glyph-name="FL00FBh" unicode="&#xfb;" 
d="M664 167l0.000976562 412.999h-175v-356c0 -31.333 -6.66699 -54.666 -20 -69.999c-12.667 -14.667 -42.334 -22 -89.001 -22h-98c-42 0 -70.333 7.83301 -85 23.5s-22 38.5 -22 68.5v356h-176v-413c0.666992 -52.667 19 -93.667 55 -123s86.333 -44 151 -44h256
c78 -0 131.333 14.333 160 43s43 70 43 124zM518.001 648.999l-122 146h-134l-122 -146h121l68 82l68 -82h121z" />
    <glyph glyph-name="FL00FCh" unicode="&#xfc;" 
d="M664 167c0 -54 -14.334 -95.332 -43.001 -123.999s-82 -43 -160 -43h-256c-64.667 0 -115 14.667 -151 44s-54.333 70.333 -55 123v413h176v-356c0 -30 7.33301 -52.833 22 -68.5s43 -23.5 85 -23.5h98c46.667 0 76.334 7.33301 89.001 22
c13.333 15.333 20 38.666 20 69.999v356h175v-413zM288.999 680.001h-135v115h135v-115zM505.999 680.001h-135v115h135v-115z" />
    <glyph glyph-name="FL00FDh" unicode="&#xfd;" 
d="M240 216l-240 364h176l157 -222l155 222h176l-250 -364v-216h-174v216zM498 796l-158 -146h-109l102 146h165z" />
    <glyph glyph-name="FL00FEh" unicode="&#xfe;" 
d="M174 0v96h287c78 0 131.333 14.333 160 43s43 70 43 124v46c0 54 -14.333 95.333 -43 124s-82 43 -160 43h-287v104h-174v-580h174zM174 280v64h206c46.667 0 76.334 -7.33301 89.001 -22c13.333 -15.333 20 -27.333 20 -36s-6.66699 -20.667 -20 -36
c-12.667 -14.667 -42.334 -22 -89.001 -22h-206v52z" />
    <glyph glyph-name="FL00FFh" unicode="&#xff;" 
d="M240 216l-240 364h176l157 -222l155 222h176l-250 -364v-216h-174v216zM289 680h-135v115h135v-115zM506 680h-135v115h135v-115z" />
    <glyph glyph-name="FL0152h" unicode="&#x152;" horiz-adv-x="1328" 
d="M1235 226v131.999h-490c0 28 7.5 50 22.5 66s43.5 24 85.5 24h382v132h-459c-38 0 -69.833 -3.33301 -95.5 -10s-46.834 -16.667 -63.501 -30c-28.667 26.667 -80.667 40 -156 40h-256c-38.667 0 -71.167 -3.5 -97.5 -10.5s-47.5 -17.333 -63.5 -31s-27.5 -31 -34.5 -52
s-10.5 -45.5 -10.5 -73.5v-246c0 -28 3.5 -52.5 10.5 -73.5s18.5 -38.333 34.5 -52s37.167 -24 63.5 -31s58.833 -10.5 97.5 -10.5h256c74.667 0 126.667 13 156 39c16.667 -13.333 37.834 -23.166 63.501 -29.499s57.5 -9.5 95.5 -9.5h459v132h-382c-42 0 -70.5 8 -85.5 24
s-22.5 39.333 -22.5 70h490zM469 153.999c-12.667 -14.667 -42.334 -22.002 -89.001 -22.002h-98c-42 0 -70.333 7.83301 -85 23.5s-22 38.5 -22 68.5v132c0 30 7.33301 52.833 22 68.5s43 23.5 85 23.5h98c46.667 0 76.334 -7.33301 89.001 -22
c13.333 -15.333 20 -38.666 20 -69.999h81v-132h-81c0 -31.333 -6.66699 -54.666 -20 -69.999z" />
    <glyph glyph-name="FL0153h" unicode="&#x153;" horiz-adv-x="1328" 
d="M1235 226v131.999h-490c0 28 7.5 50 22.5 66s43.5 24 85.5 24h382v132h-459c-38 0 -69.833 -3.33301 -95.5 -10s-46.834 -16.667 -63.501 -30c-28.667 26.667 -80.667 40 -156 40h-256c-38.667 0 -71.167 -3.5 -97.5 -10.5s-47.5 -17.333 -63.5 -31s-27.5 -31 -34.5 -52
s-10.5 -45.5 -10.5 -73.5v-246c0 -28 3.5 -52.5 10.5 -73.5s18.5 -38.333 34.5 -52s37.167 -24 63.5 -31s58.833 -10.5 97.5 -10.5h256c74.667 0 126.667 13 156 39c16.667 -13.333 37.834 -23.166 63.501 -29.499s57.5 -9.5 95.5 -9.5h459v132h-382c-42 0 -70.5 8 -85.5 24
s-22.5 39.333 -22.5 70h490zM469 153.999c-12.667 -14.667 -42.334 -22.002 -89.001 -22.002h-98c-42 0 -70.333 7.83301 -85 23.5s-22 38.5 -22 68.5v132c0 30 7.33301 52.833 22 68.5s43 23.5 85 23.5h98c46.667 0 76.334 -7.33301 89.001 -22
c13.333 -15.333 20 -38.666 20 -69.999h81v-132h-81c0 -31.333 -6.66699 -54.666 -20 -69.999z" />
    <glyph glyph-name="FL0160h" unicode="&#x160;" horiz-adv-x="774" 
d="M696 107c-6 -25.333 -20.667 -49.6699 -44 -73.0029c-22.667 -22.667 -55.334 -34 -98.001 -34h-554v132h459c12 0 18 3 18 9c0 2.66699 -0.333008 4.33398 -1 5.00098c-3.33301 10 -7 15.667 -11 17l-392 145c-48.667 16.667 -73 50.667 -73 102
c0 24.667 1.33301 41 4 49c6 10.667 11 25 15 43c5.33301 18.667 25.333 36.334 60 53.001c34 16.667 76.333 25 127 25h490v-136h-490c-11.333 0 -17.333 -6 -18 -18c0.666992 -8 2.33398 -12 5.00098 -12l435 -164c29.333 -11.333 48.333 -32 57 -62
c8 -23.333 12 -44.666 12 -63.999v-9c0 -3.33301 -0.333008 -6 -1 -8zM518 794.996l-122 -146h-134l-122 146h121l68 -82l68 82h121z" />
    <glyph glyph-name="FL0161h" unicode="&#x161;" horiz-adv-x="774" 
d="M696 107c-6 -25.333 -20.667 -49.6699 -44 -73.0029c-22.667 -22.667 -55.334 -34 -98.001 -34h-554v132h459c12 0 18 3 18 9c0 2.66699 -0.333008 4.33398 -1 5.00098c-3.33301 10 -7 15.667 -11 17l-392 145c-48.667 16.667 -73 50.667 -73 102
c0 24.667 1.33301 41 4 49c6 10.667 11 25 15 43c5.33301 18.667 25.333 36.334 60 53.001c34 16.667 76.333 25 127 25h490v-136h-490c-11.333 0 -17.333 -6 -18 -18c0.666992 -8 2.33398 -12 5.00098 -12l435 -164c29.333 -11.333 48.333 -32 57 -62
c8 -23.333 12 -44.666 12 -63.999v-9c0 -3.33301 -0.333008 -6 -1 -8zM518 794.996l-122 -146h-134l-122 146h121l68 -82l68 82h121z" />
    <glyph glyph-name="FL0178h" unicode="&#x178;" 
d="M240 200v-200.001h174v200h47c78 0 131.333 14.333 160 43s43 70 43 124v213h-176v-176c0 -18 -6.66699 -34.667 -20 -50c-12.667 -14.667 -42 -22 -88 -22h-97c-46.667 0 -76.334 7.33301 -89.001 22c-13.333 16.667 -19.666 33.334 -18.999 50.001v176h-176v-213
c0 -54 14.333 -95.333 43 -124s82 -43 160 -43h38zM289 679.999v115h-135v-115h135zM506 679.999v115h-135v-115h135z" />
    <glyph glyph-name="FL017Dh" unicode="&#x17d;" horiz-adv-x="774" 
d="M696 473c-6 24.667 -20.668 48.6689 -44.001 72.002s-56 35 -98 35h-554v-132h459c12 0 18 -3 18 -9c0 -2.66699 -0.333008 -4.33398 -1 -5.00098c-3.33301 -10 -7 -15.667 -11 -17l-392 -145c-48.667 -16.667 -73 -50.667 -73 -102c0 -24.667 1.33301 -41 4 -49
c6 -10.667 11 -25.334 15 -44.001c5.33301 -18 25.333 -35.333 60 -52c34 -16.667 76.333 -25 127 -25h490v136h-490c-11.333 0 -17.333 6 -18 18c0.666992 8 2.33398 12 5.00098 12l435 164c29.333 11.333 48.333 31.666 57 60.999c8 22.667 12 44.334 12 65.001v9
c0 3.33301 -0.333008 6 -1 8zM517.999 795.002h-121l-68 -82l-68 82h-121l122 -146h134z" />
    <glyph glyph-name="FL017Eh" unicode="&#x17e;" horiz-adv-x="774" 
d="M696 473c-6 24.667 -20.668 48.6689 -44.001 72.002s-56 35 -98 35h-554v-132h459c12 0 18 -3 18 -9c0 -2.66699 -0.333008 -4.33398 -1 -5.00098c-3.33301 -10 -7 -15.667 -11 -17l-392 -145c-48.667 -16.667 -73 -50.667 -73 -102c0 -24.667 1.33301 -41 4 -49
c6 -10.667 11 -25.334 15 -44.001c5.33301 -18 25.333 -35.333 60 -52c34 -16.667 76.333 -25 127 -25h490v136h-490c-11.333 0 -17.333 6 -18 18c0.666992 8 2.33398 12 5.00098 12l435 164c29.333 11.333 48.333 31.666 57 60.999c8 22.667 12 44.334 12 65.001v9
c0 3.33301 -0.333008 6 -1 8zM517.999 795.002h-121l-68 -82l-68 82h-121l122 -146h134z" />
    <glyph glyph-name="FL0192h" unicode="&#x192;" horiz-adv-x="740" 
d="M224 226h-50v-226l-114 -140h-172l111 140v413c0 28 3.5 52.5 10.5 73.5s18.5 38.333 34.5 52s37.167 24 63.5 31s58.833 10.5 97.5 10.5h459v-132h-382c-42 0 -70.5 -8 -85.5 -24s-22.5 -38 -22.5 -66h490v-132h-440z" />
    <glyph glyph-name="FL02C6h" unicode="&#x2c6;" horiz-adv-x="396" 
d="M378 649h-121l-68 82l-68 -82h-121l122 146h134z" />
    <glyph glyph-name="FL02DCh" unicode="&#x2dc;" horiz-adv-x="418" 
d="M399 798c-14 -95.333 -53.001 -143 -117.001 -143c-26 0 -78.333 15 -157 45c-27.333 0 -44 -15.667 -50 -47h-70c6.66699 28.667 10.667 44.667 12 48c2.66699 8.66699 5.5 16.667 8.5 24s6.83301 14.333 11.5 21c22.667 34.667 55.334 52 98.001 52
c10.667 0 34.334 -7.66699 71.001 -23c33.333 -14.667 57.666 -22 72.999 -22c26.667 0 43.667 15 51 45h69z" />
    <glyph glyph-name="FL2013h" unicode="&#x2013;" horiz-adv-x="482" 
d="M0 226h409v132h-409v-132z" />
    <glyph glyph-name="FL2014h" unicode="&#x2014;" 
d="M0 226v132h665v-132h-665z" />
    <glyph glyph-name="FL2018h" unicode="&#x2018;" horiz-adv-x="198" 
d="M124 579h-124v-253l124 138v115z" />
    <glyph glyph-name="FL2019h" unicode="&#x2019;" horiz-adv-x="198" 
d="M0 325h124v253l-124 -138v-115z" />
    <glyph glyph-name="FL201Ah" unicode="&#x201a;" horiz-adv-x="198" 
d="M124 115h-124v-253l124 138v115z" />
    <glyph glyph-name="FL201Ch" unicode="&#x201c;" horiz-adv-x="394" 
d="M330 579h-124v-253l124 138v115zM124 579h-124v-253l124 138v115z" />
    <glyph glyph-name="FL201Dh" unicode="&#x201d;" horiz-adv-x="394" 
d="M0 325h124v253l-124 -138v-115zM206 325h124v253l-124 -138v-115z" />
    <glyph glyph-name="FL201Eh" unicode="&#x201e;" horiz-adv-x="415" 
d="M124 115v-115l-124 -138v253h124zM335 115v-115l-124 -138v253h124z" />
    <glyph glyph-name="FL2020h" unicode="&#x2020;" horiz-adv-x="399" 
d="M320 326v174h-69v80h-174v-80h-71v-174h71v-326h174v326h69z" />
    <glyph glyph-name="FL2021h" unicode="&#x2021;" horiz-adv-x="399" 
d="M320 326v174h-69v80h-174v-80h-71v-174h71v-81h-71v-174h71v-71h174v71l69 1v174l-69 -1v81h69z" />
    <glyph glyph-name="plus" unicode="&#x2022;" horiz-adv-x="511" 
d="M431 284c0 33.333 -5.50195 63.667 -16.502 91s-26.167 50.666 -45.5 69.999s-42.333 34.333 -69 45s-55.667 16 -87 16s-60.166 -5.5 -86.499 -16.5s-48.833 -26.167 -67.5 -45.5s-33.167 -42.666 -43.5 -69.999s-15.5 -57.333 -15.5 -90
c0 -31.333 5.16699 -60.5 15.5 -87.5s24.833 -50.5 43.5 -70.5s41.167 -35.667 67.5 -47s55.166 -17 86.499 -17c30.667 0 59.334 5.66699 86.001 17s49.834 27 69.501 47s35 43.5 46 70.5s16.5 56.167 16.5 87.5z" />
    <glyph glyph-name="FL2026h" unicode="&#x2026;" horiz-adv-x="654" 
d="M124 115v-115h-124v115h124zM528 115v-115h-124v115h124zM326 115v-115h-124v115h124z" />
    <glyph glyph-name="FL2030h" unicode="&#x2030;" horiz-adv-x="1708" 
d="M924 613h-182l-515 -613h185zM296 392c0 -19.333 -4.00098 -33.333 -12.001 -42s-25.667 -13 -53 -13h-59c-25.333 0 -42.333 4.66699 -51 14s-13 23 -13 41v80c0 18 4.33301 31.667 13 41s25.667 14 51 14h59c28.667 0 46.334 -4.33301 53.001 -13
c8 -9.33301 12 -23.333 12 -42v-80zM198.999 258l81 -0.00195312c46.667 0 78.667 8.66699 96 26c16.667 16.667 25 41.334 25 74.001v148c0 32.667 -8.33301 57.334 -25 74.001c-17.333 17.333 -49.333 26 -96 26h-154c-46.667 0 -79 -8.16699 -97 -24.5
s-27 -41.5 -27 -75.5v-148c0 -34 9 -59.167 27 -75.5s50.333 -24.5 97 -24.5h73zM1065 148.998c0 -19.333 -4.00098 -33.333 -12.001 -42s-25.667 -13 -53 -13h-59c-25.333 0 -42.333 4.66699 -51 14s-13 23 -13 41v80c0 18 4.33301 31.667 13 41s25.667 14 51 14h59
c28.667 0 46.334 -4.33301 53.001 -13c8 -9.33301 12 -23.333 12 -42v-80zM967.998 14.998l81 -0.00195312c46.667 0 78.667 8.66699 96 26c16.667 16.667 25 41.334 25 74.001v148c0 32.667 -8.33301 57.334 -25 74.001c-17.333 17.333 -49.333 26 -96 26h-154
c-46.667 0 -79 -8.16699 -97 -24.5s-27 -41.5 -27 -75.5v-148c0 -34 9 -59.167 27 -75.5s50.333 -24.5 97 -24.5h73zM1522 147.996c0 -19.333 -4.00098 -33.333 -12.001 -42s-25.667 -13 -53 -13h-59c-25.333 0 -42.333 4.66699 -51 14s-13 23 -13 41v80
c0 18 4.33301 31.667 13 41s25.667 14 51 14h59c28.667 0 46.334 -4.33301 53.001 -13c8 -9.33301 12 -23.333 12 -42v-80zM1425 13.9961l81 -0.00195312c46.667 0 78.667 8.66699 96 26c16.667 16.667 25 41.334 25 74.001v148c0 32.667 -8.33301 57.334 -25 74.001
c-17.333 17.333 -49.333 26 -96 26h-154c-46.667 0 -79 -8.16699 -97 -24.5s-27 -41.5 -27 -75.5v-148c0 -34 9 -59.167 27 -75.5s50.333 -24.5 97 -24.5h73z" />
    <glyph glyph-name="FL2039h" unicode="&#x2039;" horiz-adv-x="306" 
d="M245 87v157l-106 88l106 89v157l-189 -159v-174z" />
    <glyph glyph-name="FL203Ah" unicode="&#x203a;" horiz-adv-x="306" 
d="M57 87v157l106 88l-106 89v157l189 -159v-174z" />
    <glyph glyph-name="FL20ACh" unicode="&#x20ac;" 
d="M-1 0c68.667 264.667 105.667 402.667 111 414c12 32.667 35 68.667 69 108c34 38.667 68.333 58 103 58h99c38 0 73 -19.333 105 -58c32.667 -38.667 54 -74.667 64 -108c4.66699 -11.333 42.667 -149.333 114 -414h-665z" />
    <glyph glyph-name="FL2122h" unicode="&#x2122;" horiz-adv-x="1027" 
d="M146 501h-144v79h398v-79h-150v-269h-104v269zM759 581l72.001 0.000976562c47.333 0 79.333 -8.66699 96 -26c17.333 -16.667 26 -41.334 26 -74.001v-248h-105v214c0 18.667 -4 32.667 -12 42c-8 8.66699 -25.667 13 -53 13h-34v-269h-106v269h-31
c-25.333 0 -42.333 -4.66699 -51 -14s-13 -23 -13 -41v-214h-106v248c2 34 9.33301 57 22 69c13.333 12 27.666 20 42.999 24c16 4.66699 35.667 7 59 7h193z" />
    <glyph glyph-name=".null" horiz-adv-x="0" 
 />
    <glyph glyph-name="nonmarkingreturn" horiz-adv-x="282" 
 />
    <glyph glyph-name="Adieresis" horiz-adv-x="341" 
 />
    <glyph glyph-name="ntilde" horiz-adv-x="650" 
 />
    <glyph glyph-name="oacute" horiz-adv-x="280" 
 />
    <glyph glyph-name=".null" horiz-adv-x="0" 
 />
    </font>
</defs>
</svg>
